<svg width="1280" height="720" xmlns="http://www.w3.org/2000/svg" xmlns:xlink="http://www.w3.org/1999/xlink" overflow="hidden"><defs><filter id="fx0" x="-10%" y="-10%" width="120%" height="120%" filterUnits="userSpaceOnUse" primitiveUnits="userSpaceOnUse"><feComponentTransfer color-interpolation-filters="sRGB"><feFuncR type="discrete" tableValues="0 0"/><feFuncG type="discrete" tableValues="0 0"/><feFuncB type="discrete" tableValues="0 0"/><feFuncA type="linear" slope="0.4" intercept="0"/></feComponentTransfer><feGaussianBlur stdDeviation="2.22222 2.22222"/></filter><filter id="fx1" x="-10%" y="-10%" width="120%" height="120%" filterUnits="userSpaceOnUse" primitiveUnits="userSpaceOnUse"><feComponentTransfer color-interpolation-filters="sRGB"><feFuncR type="discrete" tableValues="0 0"/><feFuncG type="discrete" tableValues="0 0"/><feFuncB type="discrete" tableValues="0 0"/><feFuncA type="linear" slope="0.4" intercept="0"/></feComponentTransfer><feGaussianBlur stdDeviation="2.22222 2.22222"/></filter><clipPath id="clip2"><rect x="0" y="0" width="1280" height="720"/></clipPath><linearGradient x1="247" y1="99" x2="1115" y2="99" gradientUnits="userSpaceOnUse" spreadMethod="reflect" id="fill3"><stop offset="0" stop-color="#D3DFEB"/><stop offset="0.44" stop-color="#D3DFEB"/><stop offset="1" stop-color="#FFFFFF"/></linearGradient><clipPath id="clip4"><path d="M46 70 46 124 248 124 275 97 248 70ZM1.90735e-05 1.07288e-05 1280 1.07288e-05 1280 720 1.90735e-05 720Z" fill-rule="evenodd" clip-rule="evenodd"/></clipPath><clipPath id="clip5"><rect x="-4" y="-4" width="254" height="77"/></clipPath><clipPath id="clip6"><rect x="0" y="0" width="247" height="72"/></clipPath><clipPath id="clip7"><rect x="12" y="12" width="139" height="39"/></clipPath><clipPath id="clip8"><rect x="0" y="0" width="161" height="62"/></clipPath></defs><g clip-path="url(#clip2)"><rect x="0" y="0" width="1280" height="720" fill="#FFFFFF"/><rect x="-5" y="670" width="1291" height="50" fill="#D3DFEB"/><path d="M1192.39 31.6757C1191.42 31.5135 1191.97 31.027 1191.83 30.0541 1191.69 29.2432 1191 28.2703 1191 27.7838 1191.14 26 1193.08 26 1194.19 26.6486 1194.47 26.6486 1194.61 27.1351 1194.89 27.4595 1195.44 28.2703 1196 29.7297 1195.17 30.7027 1194.47 31.5135 1193.36 32 1192.39 31.6757" fill="#003F88" fill-rule="evenodd"/><path d="M1179.12 29C1179.12 29 1179.12 29 1178.96 29 1178.96 28.8421 1178.96 28.6842 1179.12 28.5263 1179.43 28.5263 1182.53 26.4737 1182.53 26.3158 1183.3 25.5263 1184.23 24.7368 1184.39 23.6316 1182.22 24.4211 1180.2 26 1177.88 26.1579 1176.79 25.8421 1176.02 25.3684 1175.24 25.0526 1175.24 24.8947 1175.24 24.8947 1175.24 24.8947 1174.16 24.1053 1174 23 1175.24 22.5263 1177.57 23.1579 1181.13 21.4211 1183.3 20.6316 1183.77 20.3158 1185.16 19.8421 1185.63 19.3684 1186.09 16.2105 1185.78 13.2105 1185.94 10.2105 1186.71 8 1187.95 9.57895 1189.35 10.5263 1189.35 10.8421 1189.66 11 1189.97 11.3158 1189.97 11.3158 1189.97 11.3158 1190.12 11.3158 1190.59 12.2632 1190.74 12.7368 1189.97 13.5263 1189.35 14.9474 1189.04 16.5263 1189.19 18.2632 1190.74 17.9474 1191.67 16.6842 1193.53 16.5263 1194 17.4737 1193.84 18.2632 1193.07 18.8947 1191.67 19.5263 1190.28 20.1579 1188.73 20.7895 1188.42 22.3684 1187.8 24.2632 1186.71 25.5263 1186.56 25.8421 1185.78 26.4737 1185.63 26.6316 1184.7 27.2632 1183.77 27.8947 1182.68 28.2105 1179.74 29 1179.74 29 1179.12 29" fill="#003F88" fill-rule="evenodd"/><path d="M1149.68 35C1148.58 34.3636 1147.47 33.0909 1147 32.1364 1147 31.9773 1147.16 31.6591 1147.32 31.3409 1149.84 29.2727 1152.53 27.5227 1154.89 25.1364 1155.53 24.0227 1156.47 22.9091 1157.26 21.7955 1157.26 21.7955 1157.42 21.7955 1157.42 21.6364 1157.42 21.6364 1157.42 21.6364 1157.42 21.6364 1158.05 21 1158.37 21 1159 21.7955 1159 22.5909 1157.74 23.2273 1157.26 24.0227 1156.79 25.2955 1156.16 26.5682 1155.53 27.8409 1155.37 28.1591 1155.37 28.1591 1154.58 29.5909 1153.79 30.0682 1152.84 31.5 1152.53 32.4545 1151.58 32.9318 1151.26 34.3636 1150.32 34.8409 1150 34.8409 1149.84 34.8409 1149.68 35" fill="#003F88" fill-rule="evenodd"/><path d="M1165.09 25C1163.47 25 1162.98 23.9394 1162 23.0303 1162 22.7273 1162.33 22.4242 1162.33 22.1212 1162.65 22.1212 1162.65 22.1212 1162.98 21.9697 1163.63 21.8182 1163.95 21.8182 1164.77 21.8182 1165.58 21.6667 1168.19 20 1169 20.7576 1169 22.5758 1166.88 24.5455 1165.09 25" fill="#003F88" fill-rule="evenodd"/><path d="M1152.69 22C1152.14 21.4118 1152 19.0588 1152 18.3235 1152.41 17 1153.66 17 1154.62 17.8824 1155.45 19.0588 1156 19.5 1155.17 20.8235 1154.21 21.7059 1153.79 21.7059 1152.69 22" fill="#003F88" fill-rule="evenodd"/><path d="M1164.67 21C1164.51 20.2708 1165.61 18.8125 1165.29 18.375 1164.82 18.5208 1164.51 18.6667 1164.04 18.6667 1163.1 18.2292 1162 17.0625 1162.47 16.1875 1163.1 15.4583 1162.94 15.75 1164.04 15.6042 1164.98 15.1667 1166.08 14.7292 1167.18 14.2917 1169.06 14 1169.84 14.875 1170 16.625 1169.69 17.6458 1168.9 18.5208 1168.12 19.25 1167.18 19.8333 1166.24 20.4167 1165.45 20.8542 1165.14 20.8542 1164.98 21 1164.67 21" fill="#003F88" fill-rule="evenodd"/><path d="M1154.48 16C1154.16 15.6471 1154.32 15.4706 1154.48 15.1176 1154.48 14.2353 1154 13.5294 1154 12.8235 1154.16 11.2353 1154 10.7059 1155.13 10 1155.94 10.5294 1159 12.1176 1158.19 14.0588 1157.39 15.1176 1155.77 15.8235 1154.48 16" fill="#003F88" fill-rule="evenodd"/><path d="M1116.15 36C1114.42 35.36 1113 31.84 1115.05 31.04 1115.05 30.72 1115.36 30.4 1115.68 30.24 1115.68 30.24 1115.68 30.08 1115.68 30.08 1117.25 28.48 1118.51 26.08 1119.92 24.32 1120.24 23.52 1120.4 22.88 1121.18 22.72 1121.65 23.04 1121.5 23.84 1121.34 24.48 1121.5 24.64 1122.13 24.48 1122.44 24.32 1123.7 23.36 1125.27 22.4 1126.38 21.28 1126.53 20.8 1126.53 20.32 1126.69 19.68 1125.75 20 1123.07 20.64 1123.7 19.04 1124.8 18.56 1126.22 17.76 1126.85 16.64 1127.16 15.52 1127.01 14.24 1127.48 13.44 1128.58 12.8 1129.99 14.24 1130.15 15.52 1130.62 16.32 1132.04 15.36 1130.31 17.92 1129.99 18.24 1129.99 18.72 1129.99 19.36 1130.15 19.36 1130.31 19.36 1130.47 19.36 1131.41 18.56 1132.51 17.76 1133.61 17.12 1133.93 15.52 1134.24 14.24 1135.03 12.8 1136.13 12 1137.55 12.8 1138.65 13.76 1139.44 13.76 1140.07 13.28 1140.7 12.8 1141.01 12.64 1141.01 12.64 1141.64 12.64 1141.8 13.12 1141.95 13.44 1141.95 14.08 1141.48 15.84 1136.76 16.32 1137.71 18.24 1138.49 18.24 1138.81 17.28 1139.12 16.64 1139.91 16.16 1141.95 16.8 1142.9 17.44 1144 18.72 1143.21 19.2 1141.95 20 1141.8 20.32 1141.8 20.48 1141.64 20.64 1141.48 23.2 1141.48 23.2 1141.64 26.88 1141.17 27.84 1140.85 28.32 1140.22 29.12 1140.22 29.12 1140.22 29.12 1140.22 29.12 1140.07 29.12 1140.07 29.12 1140.07 29.12 1139.59 29.92 1138.49 30.72 1137.86 30.08 1137.86 27.04 1138.02 24 1137.86 21.28 1137.86 21.28 1137.71 21.28 1137.71 21.28 1137.55 22.72 1136.13 25.44 1134.87 26.24 1133.77 26.4 1132.83 25.76 1132.51 24.8 1132.67 24.48 1132.83 24.32 1133.14 24.16 1133.77 22.88 1133.46 20.48 1133.46 19.2 1132.67 19.36 1131.1 21.44 1130.47 22.24 1129.99 22.56 1129.52 22.88 1129.05 23.2 1128.74 24.32 1128.42 25.44 1128.26 26.56 1127.95 27.2 1127.63 27.68 1127.48 28.16 1127.32 28.16 1127.32 28.16 1127.32 28.32 1126.85 28.96 1125.59 30.88 1124.64 29.6 1124.64 29.44 1124.64 29.28 1124.64 29.12 1125.43 28.16 1125.9 26.72 1125.9 25.6 1124.8 25.92 1124.02 27.04 1122.91 27.04 1122.28 26.88 1121.65 26.72 1121.34 26.56 1121.34 26.4 1121.34 26.4 1121.18 26.4 1121.03 26.24 1120.71 25.92 1120.55 26.08 1120.4 26.56 1120.08 27.36 1119.92 28 1118.82 30.4 1118.04 32.8 1117.25 35.52 1116.78 35.84 1116.62 36 1116.15 36" fill="#003F88" fill-rule="evenodd"/><path d="M1117.83 22C1117.5 21.3846 1118 20.7692 1118 20.3077 1117.5 18.6154 1117 17.3846 1118 16.1538 1118.17 16 1118.5 16 1118.67 16 1119.33 16.6154 1120.5 17.6923 1121.17 18.6154 1122 20.4615 1119.33 21.3846 1117.83 22" fill="#003F88" fill-rule="evenodd"/><path d="M1120.14 16C1119.81 15.8421 1119.81 15.8421 1119.65 15.6842 1119.97 15.2105 1120.14 15.0526 1119.97 14.5789 1119 13.1579 1119 10.7895 1120.78 10 1121.27 10 1121.43 10.4737 1121.59 11.1053 1122.73 12.2105 1125 13.6316 1122.89 15.0526 1121.92 15.5263 1121.11 15.6842 1120.14 16" fill="#003F88" fill-rule="evenodd"/><path d="M1204.9 22C1203 21.3548 1203.38 18.7742 1203.57 17.6452 1205.1 17 1206.81 18.4516 1207 19.9032 1206.62 21.3548 1206.62 21.6774 1204.9 22" fill="#003F88" fill-rule="evenodd"/><path d="M1213.28 34C1213.13 34 1213.13 34 1213.13 34 1211.09 34 1209.21 33.8389 1207.33 33.1944 1207.33 33.0333 1207.33 33.0333 1207.33 32.8722 1208.43 32.2278 1209.84 32.3889 1210.62 31.2611 1210.78 30.2944 1210.93 29.4889 1210.78 28.8444 1208.74 28.8444 1207.8 30.2944 1206.23 30.9389 1204.82 31.1 1202.47 29.8111 1202 28.6833 1202 26.9111 1202.47 27.7167 1204.19 27.5556 1206.39 27.2333 1208.74 25.9444 1210.78 24.9778 1211.25 24.4944 1211.25 24.4944 1211.56 24.4944 1212.03 23.0444 1212.34 22.7222 1213.75 22.4 1214.38 22.0778 1214.38 22.0778 1216.1 21.1111 1216.1 20.95 1216.26 20.7889 1216.26 20.4667 1213.6 20.7889 1211.56 23.0444 1209.52 24.4944 1208.43 24.6556 1207.64 24.4944 1207.01 24.1722 1206.54 24.3333 1203.88 24.8167 1205.13 23.6889 1205.92 23.3667 1206.54 22.8833 1207.33 22.4 1209.37 21.1111 1211.56 19.9833 1213.6 18.6944 1213.6 18.3722 1213.44 18.2111 1213.44 18.05 1213.44 17.7278 1213.6 17.4056 1213.6 17.0833 1213.28 17.2444 1213.13 17.2444 1213.13 17.5667 1211.87 18.05 1211.25 19.1778 1210.31 18.05 1209.99 19.1778 1209.21 19.9833 1208.11 19.9833 1207.01 19.3389 1207.01 17.4056 1206.86 16.6 1206.7 16.4389 1206.54 15.7944 1206.23 14.8278 1205.76 13.8611 1204.82 12.5722 1205.45 11.7667 1206.23 11.1222 1206.54 10.9611 1207.17 12.0889 1207.8 12.5722 1208.58 13.2167 1209.05 14.0222 1209.05 14.0222 1209.21 14.0222 1209.21 14.0222 1209.52 14.9889 1210.46 16.1167 1210.31 17.4056 1210.93 17.0833 1211.72 16.4389 1211.4 15.6333 1210.31 15.15 1210.93 14.1833 1211.56 13.8611 1212.03 13.8611 1212.03 13.8611 1212.66 13.8611 1212.66 13.5389 1212.66 13.5389 1212.5 13.3778 1211.72 13.0556 1211.87 12.8944 1212.03 12.25 1211.09 11.9278 1210.78 10.9611 1211.09 10.1556 1213.91 9.51111 1213.91 9.51111 1215.16 9.02778 1215.95 8.06111 1216.89 5 1218.61 5.64444 1219.08 6.12778 1219.4 7.25556 1219.4 8.22222 1219.08 8.70556 1218.77 9.02778 1218.77 9.51111 1218.93 9.51111 1219.08 9.51111 1219.24 9.67222 1220.34 9.02778 1220.96 8.38333 1221.59 9.99444 1222.69 10.6389 1223 10.4778 1222.69 12.0889 1221.9 13.8611 1220.96 15.6333 1220.02 17.2444 1220.02 17.2444 1220.02 17.4056 1220.02 17.4056 1220.34 17.4056 1220.49 17.5667 1220.65 17.5667 1220.81 18.3722 1220.81 19.1778 1220.81 20.1444 1220.18 21.1111 1219.24 21.1111 1218.14 21.2722 1216.73 22.0778 1215.48 22.5611 1214.22 23.3667 1214.22 23.6889 1214.22 24.0111 1214.38 24.3333 1215.01 24.3333 1215.63 24.3333 1216.42 24.1722 1217.04 24.8167 1217.04 26.1056 1216.57 26.9111 1215.79 27.0722 1215.32 27.2333 1214.69 27.5556 1214.69 27.8778 1214.69 28.2 1214.54 28.6833 1214.69 30.1333 1215.32 33.6778 1213.28 34M1217.51 15.7944C1218.14 15.15 1218.61 14.3444 1218.61 13.5389 1217.99 12.8944 1217.04 12.8944 1216.42 12.8944 1216.42 13.2167 1216.42 13.2167 1215.63 14.5056 1215.79 14.5056 1215.79 14.5056 1215.95 14.5056 1215.79 14.6667 1215.79 14.6667 1215.63 14.6667 1215.63 14.6667 1215.79 14.6667 1215.79 14.8278 1216.1 14.8278 1216.26 14.5056 1216.42 14.3444 1217.36 14.1833 1217.36 14.5056 1217.36 15.7944 1217.36 15.7944 1217.36 15.7944 1217.51 15.7944" fill="#003F88" fill-rule="evenodd"/><path d="M1119 43.375 1122.1 39.625 1119.26 39.625 1119.26 39.375 1119.26 39 1123 39 1123 39.375 1123 39.625 1119.77 43.375 1123 43.375 1123 43.625 1123 44 1119 44 1119 43.625 1119 43.375Z" fill="#003F88" fill-rule="evenodd"/><path d="M1125 39 1125.26 39 1125.65 39 1125.65 41 1128.35 41 1128.35 39 1128.61 39 1129 39 1129 44 1128.61 44 1128.35 44 1128.35 41.625 1125.65 41.625 1125.65 44 1125.26 44 1125 44 1125 39Z" fill="#003F88" fill-rule="evenodd"/><path d="M1131 44 1131 39 1134 39 1134 39.375 1134 39.625 1131.62 39.625 1131.62 41 1133.79 41 1133.79 41.375 1133.79 41.625 1131.62 41.625 1131.62 43.375 1134 43.375 1134 43.625 1134 44 1131 44Z" fill="#003F88" fill-rule="evenodd"/><path d="M1137.56 39C1137.78 39 1137.78 39 1137.78 39 1138 39 1138 39 1138 39 1138 42.5938 1138 42.5938 1138 42.5938 1138 43.0625 1138 43.375 1137.78 43.6875 1137.56 44 1137.33 44 1137 44 1136.67 44 1136.44 44 1136.22 43.6875 1136.11 43.375 1136 43.0625 1136 42.5938 1136 42.2812 1136 42.2812 1136 42.2812 1136.44 42.2812 1136.44 42.2812 1136.44 42.2812 1136.44 42.5938 1136.44 42.5938 1136.44 42.5938 1136.44 42.9062 1136.56 43.0625 1136.67 43.2188 1136.67 43.375 1136.89 43.5312 1137 43.5312 1137.22 43.5312 1137.33 43.375 1137.44 43.2188 1137.56 43.0625 1137.56 42.75 1137.56 42.5938L1137.56 39Z" fill="#003F88" fill-rule="evenodd"/><path d="M1140 39 1140.6 39 1141 39 1141 44 1140.6 44 1140 44 1140 39Z" fill="#003F88" fill-rule="evenodd"/><path d="M1144.08 39 1144.64 39 1144.92 39 1147 44 1146.58 44 1146.17 44 1145.61 42.375 1143.39 42.375 1142.97 44 1142.56 44 1142 44 1144.08 39ZM1143.67 42 1145.33 42 1144.64 39.625 1144.64 39.625 1143.67 42Z" fill="#003F88" fill-rule="evenodd"/><path d="M1148.65 44 1148.39 44 1148 44 1148 39 1148.52 39 1148.77 39 1151.35 43 1151.35 39 1151.74 39 1152 39 1152 44 1151.74 44 1151.35 44 1148.65 40 1148.65 44Z" fill="#003F88" fill-rule="evenodd"/><path d="M1156.59 44C1155.72 44 1155.21 43.8182 1154.69 43.2727 1154.17 42.7273 1154 42 1154 41.0909 1154 40.1818 1154.17 39.4545 1154.69 38.9091 1155.21 38.1818 1155.72 38 1156.59 38 1157.1 38 1157.62 38.1818 1158.14 38.5455 1158.48 38.9091 1158.83 39.2727 1158.83 39.8182 1158.14 39.8182 1158.14 39.8182 1158.14 39.8182 1158.14 39.4545 1157.97 39.2727 1157.62 38.9091 1157.28 38.7273 1156.93 38.7273 1156.59 38.7273 1156.07 38.7273 1155.55 38.9091 1155.21 39.2727 1154.86 39.8182 1154.69 40.3636 1154.69 41.0909 1154.69 41.8182 1154.86 42.3636 1155.21 42.7273 1155.55 43.2727 1156.07 43.4545 1156.59 43.4545 1157.1 43.4545 1157.62 43.2727 1157.97 42.7273 1157.97 42.7273 1157.97 42.5455 1158.14 42.5455 1158.14 42.3636 1158.14 42.3636 1158.31 42.1818 1158.31 42 1158.31 41.8182 1158.31 41.6364 1158.31 41.4545 1158.31 41.4545 1158.31 41.4545 1156.59 41.4545 1156.59 41.4545 1156.59 41.4545 1156.59 40.9091 1156.59 40.9091 1156.59 40.9091 1159 40.9091 1159 40.9091 1159 40.9091 1159 43.8182 1159 43.8182 1159 43.8182 1158.48 43.8182 1158.48 43.8182 1158.48 43.8182 1158.31 43.0909 1158.31 43.0909 1158.31 43.0909 1158.31 43.2727 1158.31 43.2727 1158.31 43.2727 1157.79 43.8182 1157.28 44 1156.59 44" fill="#003F88" fill-rule="evenodd"/><path d="M1168 42.125C1168 42.75 1167.68 43.2188 1167.36 43.5312 1167.04 43.8438 1166.56 44 1165.92 44 1165.28 44 1164.8 43.8438 1164.48 43.5312 1164.16 43.2188 1164 42.75 1164 42.125 1164 39 1164 39 1164 39 1164.32 39 1164.32 39 1164.32 39 1164.64 39 1164.64 39 1164.64 39 1164.64 42.125 1164.64 42.125 1164.64 42.125 1164.64 42.5938 1164.8 42.9062 1164.96 43.0625 1165.12 43.375 1165.44 43.5312 1165.92 43.5312 1166.4 43.5312 1166.72 43.375 1166.88 43.0625 1167.2 42.9062 1167.2 42.5938 1167.2 42.125 1167.2 39 1167.2 39 1167.2 39 1167.52 39 1167.52 39 1167.52 39 1168 39 1168 39 1168 39L1168 42.125Z" fill="#003F88" fill-rule="evenodd"/><path d="M1170.65 44 1170.26 44 1170 44 1170 39 1170.26 39 1170.77 39 1173.35 43 1173.35 39 1173.61 39 1174 39 1174 44 1173.61 44 1173.23 44 1170.65 40 1170.65 44Z" fill="#003F88" fill-rule="evenodd"/><path d="M1176 39 1176.4 39 1177 39 1177 44 1176.4 44 1176 44 1176 39Z" fill="#003F88" fill-rule="evenodd"/><path d="M1177 39 1177.44 39 1177.88 39 1179.5 43.25 1179.5 43.25 1181.12 39 1181.71 39 1182 39 1180.09 44 1179.5 44 1179.21 44 1177 39Z" fill="#003F88" fill-rule="evenodd"/><path d="M1183 44 1183 39 1187 39 1187 39.375 1187 39.625 1183.8 39.625 1183.8 41 1186.6 41 1186.6 41.375 1186.6 41.625 1183.8 41.625 1183.8 43.375 1187 43.375 1187 43.625 1187 44 1183 44Z" fill="#003F88" fill-rule="evenodd"/><path d="M1189 39C1189.3 39 1189.3 39 1189.3 39 1191.22 39 1191.22 39 1191.22 39 1191.67 39 1192.11 39.1562 1192.41 39.3125 1192.56 39.4688 1192.7 39.9375 1192.7 40.25 1192.7 40.7188 1192.56 41.0312 1192.41 41.3438 1192.26 41.3438 1192.26 41.5 1192.11 41.5 1192.26 41.5 1192.26 41.5 1192.26 41.5 1192.56 41.6562 1192.7 41.9688 1192.7 42.4375 1192.7 43.375 1192.7 43.375 1192.7 43.375 1192.7 43.5312 1192.7 43.5312 1192.7 43.6875 1192.85 43.6875 1192.85 43.6875 1193 43.8438 1193 43.8438 1193 43.8438 1193 43.8438 1192.11 43.8438 1192.11 43.8438 1192.11 43.8438 1192.11 43.8438 1192.11 43.8438 1192.11 43.5312 1192.11 43.375 1192.11 43.2188 1192.11 43.0625 1192.11 42.5938 1192.11 42.5938 1192.11 42.5938 1192.11 42.2812 1191.96 42.125 1191.81 41.9688 1191.67 41.8125 1191.52 41.8125 1191.22 41.8125 1189.59 41.8125 1189.59 41.8125 1189.59 41.8125 1189.59 44 1189.59 44 1189.59 44 1189.3 44 1189.3 44 1189.3 44 1189 44 1189 44 1189 44L1189 39ZM1189.59 41.1875C1191.22 41.1875 1191.22 41.1875 1191.22 41.1875 1191.52 41.1875 1191.81 41.1875 1191.81 41.0312 1191.96 40.875 1192.11 40.7188 1192.11 40.4062 1192.11 40.0938 1191.96 39.7812 1191.81 39.7812 1191.67 39.625 1191.52 39.4688 1191.22 39.4688 1189.59 39.4688 1189.59 39.4688 1189.59 39.4688L1189.59 41.1875Z" fill="#003F88" fill-rule="evenodd"/><path d="M1197.4 39.8182C1197.4 39.4545 1197.28 39.0909 1197.16 38.9091 1197.04 38.7273 1196.8 38.7273 1196.44 38.7273 1196.2 38.7273 1195.96 38.7273 1195.84 38.9091 1195.72 39.0909 1195.6 39.2727 1195.6 39.6364 1195.6 39.8182 1195.6 40 1195.72 40.1818 1195.84 40.3636 1196.08 40.3636 1196.32 40.5455 1197.04 40.7273 1197.04 40.7273 1197.04 40.7273 1197.4 40.9091 1197.64 41.0909 1197.76 41.2727 1197.88 41.6364 1198 42 1198 42.3636 1198 42.9091 1197.88 43.2727 1197.64 43.6364 1197.4 44 1197.04 44 1196.56 44 1196.08 44 1195.6 43.8182 1195.36 43.4545 1195.12 43.2727 1195 42.7273 1195 42.1818 1195 42 1195 42 1195 42 1195.48 42 1195.48 42 1195.48 42 1195.48 42.5455 1195.6 42.7273 1195.72 43.0909 1195.96 43.2727 1196.2 43.4545 1196.56 43.4545 1196.8 43.4545 1197.04 43.2727 1197.28 43.0909 1197.4 42.9091 1197.52 42.7273 1197.52 42.3636 1197.52 42.1818 1197.4 42 1197.4 41.8182 1197.28 41.6364 1197.04 41.4545 1196.68 41.4545 1196.08 41.0909 1196.08 41.0909 1196.08 41.0909 1195.72 41.0909 1195.48 40.9091 1195.36 40.7273 1195.12 40.5455 1195.12 40.1818 1195.12 39.8182 1195.12 39.2727 1195.24 38.7273 1195.48 38.5455 1195.72 38.1818 1196.08 38 1196.44 38 1196.92 38 1197.28 38.1818 1197.52 38.5455 1197.76 38.7273 1197.88 39.2727 1197.88 39.8182L1197.4 39.8182Z" fill="#003F88" fill-rule="evenodd"/><path d="M1200 39 1200.4 39 1201 39 1201 44 1200.4 44 1200 44 1200 39Z" fill="#003F88" fill-rule="evenodd"/><path d="M1203.62 39.625 1202 39.625 1202 39.375 1202 39 1206 39 1206 39.375 1206 39.625 1204.25 39.625 1204.25 44 1204 44 1203.62 44 1203.62 39.625Z" fill="#003F88" fill-rule="evenodd"/><path d="M1209.76 42 1208 39 1208.35 39 1208.71 39 1210 41.375 1210 41.375 1211.29 39 1211.76 39 1212 39 1210.35 42 1210.35 44 1210 44 1209.76 44 1209.76 42Z" fill="#003F88" fill-rule="evenodd"/><path d="M1082.58 3C1094.98 3 1105 13.4028 1105 26.0813 1105 38.5972 1094.98 49 1082.58 49 1070.18 49 1060 38.5972 1060 26.0813 1060 13.4028 1070.18 3 1082.58 3M1082.58 3.97527C1070.65 3.97527 1060.95 13.8905 1060.95 26.0813 1060.95 38.1095 1070.65 48.0247 1082.58 48.0247 1094.51 48.0247 1104.2 38.1095 1104.2 26.0813 1104.2 13.8905 1094.51 3.97527 1082.58 3.97527" fill="#003F88" fill-rule="evenodd"/><path d="M1074.49 36C1073.04 34.8921 1071.92 33.3093 1071.12 31.7266 1070.32 30.1439 1070 28.2446 1070 26.5036 1070 19.6978 1075.61 14 1082.5 14 1089.39 14 1095 19.6978 1095 26.5036 1095 28.2446 1094.52 30.1439 1093.88 31.7266 1093.08 33.3093 1091.79 34.8921 1090.51 36 1090.19 35.6835 1090.19 35.6835 1090.19 35.6835 1091.47 34.5755 1092.6 33.1511 1093.4 31.5683 1094.2 29.9856 1094.52 28.2446 1094.52 26.5036 1094.52 19.8561 1089.07 14.4748 1082.5 14.4748 1075.77 14.4748 1070.48 19.8561 1070.48 26.5036 1070.48 28.2446 1070.8 29.9856 1071.6 31.5683 1072.24 33.1511 1073.37 34.5755 1074.81 35.6835L1074.49 36Z" fill="#003F88" fill-rule="evenodd"/><path d="M1063 34 1062 31.3793 1062.5 31.2414 1066.38 31.931 1065.75 30.1379 1066.25 30 1067 32.2069 1066.5 32.3448 1062.88 31.931 1063.5 33.7241 1063 34Z" fill="#003F88" fill-rule="evenodd"/><path d="M1064.92 37 1064.79 36.6129 1066.5 35.7097 1065.84 34.4194 1064.13 35.4516 1064 34.9355 1067.82 33 1068.21 33.5161 1066.37 34.2903 1067.03 35.4516 1068.61 34.6774 1069 35.0645 1064.92 37Z" fill="#003F88" fill-rule="evenodd"/><path d="M1066.45 39 1065 37.1818 1068.68 35 1070 36.8182 1069.74 37.0606 1068.55 35.7273 1067.37 36.3333 1068.42 37.5455 1068.03 37.7879 1067.11 36.5758 1065.79 37.4242 1066.71 38.7576 1066.45 39Z" fill="#003F88" fill-rule="evenodd"/><path d="M1069.38 42 1069 41.6897 1071.62 39 1072 39.3103 1069.38 42Z" fill="#003F88" fill-rule="evenodd"/><path d="M1071.52 43.6571 1072.21 42.6286 1071.52 42.2857 1070.41 43.0857 1070 42.8571 1073.31 40 1074 40.2286 1072.21 44 1071.52 43.6571ZM1072.62 42.0571 1073.31 40.8 1073.17 40.6857 1071.93 41.8286 1072.62 42.0571Z" fill="#003F88" fill-rule="evenodd"/><path d="M1075 45 1074.62 44.6154 1074.88 41.5385 1073.62 44.1026 1073 43.8462 1075 40 1075.5 40.1282 1075.38 43.2051 1076.62 40.641 1077 40.8974 1075 45Z" fill="#003F88" fill-rule="evenodd"/><path d="M1077.89 46C1077.58 46 1077.58 46 1077.58 46 1077.58 45.5862 1077.58 45.5862 1077.58 45.5862 1077.42 45.7241 1077.42 45.7241 1077.26 45.7241 1077.11 45.7241 1076.95 45.7241 1076.79 45.7241 1076.47 45.5862 1076.32 45.4483 1076.16 45.1724 1076 44.7586 1076 44.3448 1076.16 43.7931 1076.47 43.1034 1076.63 42.6897 1076.95 42.4138 1077.42 42.1379 1077.89 42 1078.21 42.1379 1078.68 42.2759 1079 42.8276 1078.84 43.5172 1078.37 43.5172 1078.37 43.5172 1078.37 43.5172 1078.53 43.2414 1078.37 42.6897 1078.05 42.5517 1077.74 42.5517 1077.42 42.5517 1077.26 42.8276 1077.11 42.9655 1076.95 43.3793 1076.79 43.931 1076.63 44.3448 1076.47 44.7586 1076.63 44.8966 1076.63 45.1724 1076.79 45.3103 1076.95 45.3103 1077.11 45.4483 1077.42 45.4483 1077.42 45.3103 1077.58 45.1724 1077.74 45.0345 1077.89 44.7586 1077.89 44.4828 1077.89 44.4828 1077.89 44.4828 1077.26 44.3448 1077.26 44.3448 1077.26 44.3448 1077.42 43.931 1077.42 43.931 1077.42 43.931 1078.53 44.3448 1078.53 44.3448 1078.53 44.3448L1077.89 46Z" fill="#003F88" fill-rule="evenodd"/><path d="M1084 44.8148C1084 45.2593 1083.8 45.5556 1083.6 45.7037 1083.2 46 1083 46 1082.4 46 1081.8 46 1081.4 45.8519 1081.2 45.7037 1081 45.4074 1081 45.1111 1081 44.8148 1081 42 1081 42 1081 42 1081.8 42 1081.8 42 1081.8 42 1081.6 44.8148 1081.6 44.8148 1081.6 44.8148 1081.6 45.1111 1081.6 45.2593 1081.8 45.4074 1082 45.5556 1082.2 45.5556 1082.4 45.5556 1082.6 45.5556 1082.8 45.5556 1083 45.4074 1083.2 45.2593 1083.2 45.1111 1083.2 44.8148 1083.4 42 1083.4 42 1083.4 42 1084 42 1084 42 1084 42L1084 44.8148Z" fill="#003F88" fill-rule="evenodd"/><path d="M1087 45.6667 1086.43 45.7778 1084.71 43.2222 1085.14 45.8889 1084.43 46 1084 42.3333 1084.71 42.1111 1086.14 44 1085.71 42 1086.29 42 1087 45.6667Z" fill="#003F88" fill-rule="evenodd"/><path d="M1088 45.7576 1087.64 46 1087 42.1212 1087.29 42 1088 45.7576Z" fill="#003F88" fill-rule="evenodd"/><path d="M1090.35 40 1091 44.7297 1090.48 45 1088 40.9459 1088.52 40.8108 1090.35 43.5135 1089.83 40.1351 1090.35 40Z" fill="#003F88" fill-rule="evenodd"/><path d="M1094 42.8158 1092.06 44 1090 40.0526 1091.82 39 1092.06 39.3947 1090.73 40.1842 1091.33 41.5 1092.67 40.7105 1092.79 41.1053 1091.7 41.7632 1092.42 43.3421 1093.76 42.2895 1094 42.8158Z" fill="#003F88" fill-rule="evenodd"/><path d="M1097 41.5714C1096.44 41.9286 1096.44 41.9286 1096.44 41.9286 1094.78 40.5 1094.78 40.5 1094.78 40.5 1094.22 41.0357 1094.22 41.0357 1094.22 41.0357 1095.52 42.6429 1095.52 42.6429 1095.52 42.6429 1094.96 43 1094.96 43 1094.96 43 1092 39.0714 1092 39.0714 1092 39.0714 1092.93 38.3571 1092.93 38.3571 1092.93 38.3571 1093.3 38.1786 1093.67 38 1094.04 38 1094.96 38.1786 1095.33 38.7143 1095.33 39.4286 1095.33 39.6071 1095.33 39.9643 1095.15 40.1429L1097 41.5714ZM1093.85 38.7143C1093.48 38.5357 1093.11 38.8929 1092.93 39.0714 1093.85 40.3214 1093.85 40.3214 1093.85 40.3214 1094.22 40.1429 1094.22 40.1429 1094.59 39.7857 1094.59 39.25 1094.41 38.8929 1093.85 38.7143" fill="#003F88" fill-rule="evenodd"/><path d="M1098.14 37.6667C1099 38.1667 1098.71 39.8333 1097.71 40 1097.43 40 1097.14 40 1097 39.8333 1097.14 39.3333 1097.14 39.3333 1097.14 39.3333 1097.29 39.5 1097.43 39.5 1097.57 39.5 1098.29 39.3333 1098.29 38.5 1097.86 38.1667 1097.71 38 1097.57 38 1097.43 38 1096.86 38.1667 1096.57 38.5 1096.14 38.5 1095.57 38.5 1095.14 38.1667 1095 37.5 1095 37.1667 1095.14 36.8333 1095.29 36.6667 1095.57 36 1096.14 36 1096.57 36.3333 1096.43 36.8333 1096.43 36.8333 1096.43 36.8333 1096.14 36.6667 1095.71 36.6667 1095.57 37 1095.43 37.1667 1095.43 37.3333 1095.43 37.5 1095.57 37.8333 1095.71 38 1096 38 1096.57 37.8333 1096.86 37.3333 1097.43 37.5 1097.57 37.5 1097.86 37.5 1098.14 37.6667" fill="#003F88" fill-rule="evenodd"/><path d="M1100 37.4286 1099.61 38 1096 35.2857 1096.26 35 1100 37.4286Z" fill="#003F88" fill-rule="evenodd"/><path d="M1098.22 32.4286 1097.89 33.2857 1101 35.5714 1100.67 36 1097.67 33.8571 1097.33 34.5714 1097 34.4286 1097.78 32 1098.22 32.4286Z" fill="#003F88" fill-rule="evenodd"/><path d="M1098.89 30 1100.78 31.8261 1102 32.4783 1101.78 33 1100.67 32.3478 1098 32.3478 1098.22 31.8261 1100 31.8261 1098.78 30.6522 1098.89 30Z" fill="#003F88" fill-rule="evenodd"/><path d="M1069 40.4C1068.71 40.7 1068.43 41 1068.14 41 1067.86 41 1067.57 40.85 1067.29 40.55 1067.14 40.4 1067 40.1 1067 39.8 1067 39.65 1067 39.5 1067.14 39.35 1067.57 39.5 1067.57 39.5 1067.57 39.5 1067.43 39.65 1067.43 39.65 1067.43 39.8 1067.43 39.95 1067.57 40.1 1067.57 40.25 1067.71 40.4 1067.86 40.4 1068.14 40.4 1068.29 40.4 1068.43 40.25 1068.71 40.1 1070.57 38 1070.57 38 1070.57 38 1071 38.45 1071 38.45 1071 38.45L1069 40.4Z" fill="#003F88" fill-rule="evenodd"/><path d="M1076.47 39.7037C1075 38.7778 1075 38.7778 1075 38.7778 1075 38.4074 1075 38.4074 1075 38.4074 1075.65 38.7778 1075.65 38.7778 1075.65 38.7778 1076.63 36.9259 1076.63 36.9259 1076.63 36.9259 1075.98 36.5556 1075.98 36.5556 1075.98 36.5556 1076.14 36.3704 1076.14 36.3704 1076.14 36.3704 1076.3 36.5556 1076.47 36.5556 1076.63 36.5556 1076.79 36.5556 1076.79 36.5556 1076.95 36.3704 1077.28 36.7407 1077.28 36.7407 1077.28 36.7407 1075.98 39.1481 1075.98 39.1481 1075.98 39.1481 1076.63 39.5185 1076.63 39.5185 1076.63 39.5185L1076.47 39.7037ZM1081.02 38.5926C1081.02 38.5926 1081.02 38.4074 1080.86 38.2222 1080.86 38.2222 1080.7 38.037 1080.37 38.037 1080.21 38.037 1080.05 38.037 1079.88 38.037 1079.72 38.2222 1079.72 38.2222 1079.56 38.4074 1079.56 38.5926 1079.56 38.5926 1079.72 38.7778 1079.72 38.7778 1079.88 38.7778 1079.88 38.963 1080.05 38.963 1080.05 38.963 1080.21 39.1481 1080.37 39.1481 1080.37 39.1481 1080.53 39.1481 1080.7 39.1481 1080.86 39.1481 1080.86 38.963 1081.02 38.963 1081.02 38.7778 1081.02 38.5926M1080.86 40.2593C1080.86 40.0741 1080.86 40.0741 1080.86 39.8889 1080.7 39.8889 1080.53 39.7037 1080.37 39.7037 1080.37 39.5185 1080.37 39.5185 1080.21 39.5185 1080.05 39.5185 1080.05 39.3333 1079.88 39.3333 1079.72 39.3333 1079.56 39.5185 1079.4 39.5185 1079.4 39.7037 1079.23 39.7037 1079.23 39.8889 1079.23 40.0741 1079.23 40.2593 1079.4 40.4444 1079.56 40.6296 1079.72 40.6296 1079.88 40.6296 1080.21 40.8148 1080.37 40.6296 1080.53 40.6296 1080.7 40.4444 1080.86 40.4444 1080.86 40.2593M1079.88 41C1079.72 41 1079.56 41 1079.4 40.8148 1079.23 40.8148 1079.07 40.6296 1078.91 40.6296 1078.74 40.4444 1078.74 40.4444 1078.74 40.2593 1078.74 40.0741 1078.58 39.8889 1078.74 39.8889 1078.74 39.7037 1078.74 39.5185 1078.91 39.3333 1079.07 39.3333 1079.23 39.1481 1079.56 39.1481 1079.56 39.1481 1079.56 39.1481 1079.56 39.1481 1079.4 38.963 1079.23 38.963 1079.07 38.7778 1079.07 38.5926 1079.07 38.5926 1079.07 38.4074 1079.07 38.2222 1079.23 38.037 1079.56 37.8519 1079.72 37.6667 1080.05 37.6667 1080.53 37.8519 1080.86 37.8519 1081.19 37.8519 1081.35 38.037 1081.51 38.2222 1081.67 38.5926 1081.51 38.7778 1081.51 38.963 1081.51 38.963 1081.35 39.1481 1081.19 39.3333 1081.02 39.3333 1080.86 39.3333 1080.86 39.3333 1080.86 39.3333 1080.86 39.3333 1081.02 39.5185 1081.19 39.7037 1081.35 39.7037 1081.35 39.8889 1081.51 40.0741 1081.35 40.2593 1081.35 40.6296 1081.19 40.8148 1080.86 40.8148 1080.53 41 1080.21 41 1079.88 41M1085.26 39.1481C1085.26 38.7778 1085.09 38.7778 1085.09 38.5926 1085.09 38.4074 1084.93 38.4074 1084.93 38.2222 1084.77 38.2222 1084.77 38.2222 1084.6 38.037 1084.6 38.037 1084.44 38.037 1084.44 38.037 1084.12 38.037 1083.95 38.2222 1083.79 38.2222 1083.63 38.4074 1083.63 38.5926 1083.63 38.7778 1083.63 38.963 1083.63 38.963 1083.63 39.1481 1083.79 39.1481 1083.79 39.3333 1083.95 39.3333 1083.95 39.3333 1084.12 39.3333 1084.12 39.5185 1084.28 39.5185 1084.28 39.5185 1084.44 39.5185 1084.6 39.5185 1084.6 39.5185 1084.77 39.3333 1084.93 39.3333 1085.09 39.3333 1085.09 39.3333 1085.26 39.3333 1085.26 39.1481 1085.26 39.1481 1085.26 39.1481 1085.26 39.1481 1085.26 39.1481M1083.14 38.7778C1083.14 38.5926 1083.14 38.5926 1083.14 38.4074 1083.3 38.2222 1083.3 38.037 1083.47 38.037 1083.63 37.8519 1083.63 37.8519 1083.95 37.8519 1084.12 37.6667 1084.28 37.6667 1084.44 37.6667 1084.6 37.6667 1084.77 37.6667 1084.93 37.8519 1085.09 37.8519 1085.26 37.8519 1085.26 38.037 1085.42 38.037 1085.58 38.2222 1085.58 38.4074 1085.74 38.5926 1085.74 38.963 1085.74 39.1481 1085.74 39.5185 1085.74 39.7037 1085.58 39.8889 1085.58 40.0741 1085.42 40.2593 1085.26 40.4444 1085.09 40.6296 1084.93 40.8148 1084.77 40.8148 1084.44 41 1084.28 41 1083.95 41 1083.79 41 1083.79 41 1083.63 41 1083.63 41 1083.47 41 1083.47 41 1083.47 40.6296 1083.47 40.6296 1083.47 40.6296 1083.47 40.6296 1083.47 40.6296 1083.47 40.6296 1083.47 40.6296 1083.63 40.6296 1083.63 40.6296 1083.79 40.6296 1083.79 40.6296 1083.95 40.6296 1084.28 40.6296 1084.6 40.6296 1084.77 40.4444 1085.09 40.2593 1085.09 39.8889 1085.09 39.5185 1085.09 39.7037 1084.93 39.7037 1084.77 39.7037 1084.6 39.7037 1084.44 39.8889 1084.28 39.8889 1084.12 39.8889 1083.95 39.7037 1083.95 39.7037 1083.79 39.7037 1083.63 39.7037 1083.47 39.7037 1083.3 39.5185 1083.3 39.3333 1083.14 39.3333 1083.14 39.1481 1083.14 38.963 1083.14 38.7778M1089 36.1852C1089 39.3333 1089 39.3333 1089 39.3333 1088.51 39.7037 1088.51 39.7037 1088.51 39.7037 1088.51 36.5556 1088.51 36.5556 1088.51 36.5556 1086.88 37.4815 1086.88 37.4815 1086.88 37.4815 1086.72 37.1111 1086.72 37.1111 1086.72 37.1111 1088.84 36 1088.84 36 1088.84 36L1089 36.1852Z" fill="#003F88" fill-rule="evenodd"/><path d="M1089.36 14C1089 13.8333 1089.18 13.6667 1089.36 13.3333 1089.36 13.1667 1089.18 12.8333 1089.18 12.5 1089.36 12 1090.09 12.3333 1090.45 12.5 1090.45 12.5 1090.64 12.6667 1090.64 12.8333 1090.82 13.1667 1091 13.6667 1090.45 13.8333 1090.09 14 1089.73 14 1089.36 14" fill="#003F88" fill-rule="evenodd"/><path d="M1086.02 11.8611C1086.02 11.8611 1086.02 11.8611 1086.02 11.8611 1086.02 11.8611 1086.02 11.8611 1086.02 11.7222 1086.17 11.7222 1087.2 11.4444 1087.2 11.4444 1087.49 11.3056 1087.78 11.1667 1087.93 10.8889 1087.2 10.8889 1086.61 11.1667 1085.88 11.0278 1085.59 10.8889 1085.44 10.75 1085.29 10.6111 1085.29 10.6111 1085.29 10.6111 1085.29 10.6111 1085 10.3333 1085 10.0556 1085.44 9.91667 1086.02 10.1944 1087.2 10.0556 1087.78 9.91667 1087.93 9.91667 1088.37 9.91667 1088.51 9.77778 1088.8 9.08333 1088.95 8.25 1089.24 7.41667 1089.54 7 1089.83 7.41667 1090.12 7.83333 1090.12 7.83333 1090.27 7.83333 1090.27 7.97222 1090.27 7.97222 1090.27 7.97222 1090.27 7.97222 1090.41 8.25 1090.41 8.38889 1090.12 8.52778 1089.83 8.94444 1089.68 9.36111 1089.54 9.77778 1089.98 9.77778 1090.41 9.5 1090.85 9.63889 1091 9.91667 1090.85 10.0556 1090.56 10.1944 1090.27 10.1944 1089.83 10.3333 1089.24 10.3333 1089.1 10.75 1088.8 11.1667 1088.37 11.4444 1088.37 11.5833 1088.07 11.7222 1088.07 11.7222 1087.78 11.7222 1087.49 11.8611 1087.05 11.8611 1086.17 12 1086.17 11.8611 1086.02 11.8611" fill="#003F88" fill-rule="evenodd"/><path d="M1074.88 16C1074.62 16 1074.25 15.6364 1074 15.4545 1074 15.4545 1074 15.2727 1074 15.0909 1074.5 14.1818 1074.88 13.0909 1075.25 12 1075.38 11.4545 1075.38 10.9091 1075.5 10.5455 1075.5 10.5455 1075.5 10.5455 1075.5 10.3636 1075.5 10.3636 1075.5 10.3636 1075.5 10.3636 1075.62 10.1818 1075.75 10 1075.88 10.3636 1076 10.5455 1075.75 10.9091 1075.75 11.2727 1075.75 11.8182 1075.75 12.3636 1075.62 12.9091 1075.62 12.9091 1075.62 12.9091 1075.62 13.4545 1075.5 13.8182 1075.38 14.3636 1075.38 14.7273 1075.25 15.0909 1075.25 15.6364 1075.12 16 1075 16 1075 16 1074.88 16" fill="#003F88" fill-rule="evenodd"/><path d="M1078.23 10.8462C1077.77 11 1077.46 10.8462 1077.15 10.5385 1077 10.5385 1077.15 10.3846 1077.15 10.2308 1077.15 10.2308 1077.15 10.2308 1077.31 10.0769 1077.46 10.0769 1077.46 10.0769 1077.77 9.92308 1077.92 9.76923 1078.54 9 1078.85 9.15385 1079 9.61539 1078.69 10.5385 1078.23 10.8462" fill="#003F88" fill-rule="evenodd"/><path d="M1074.5 12C1074.3 11.8182 1074.1 10.9091 1074.1 10.7273 1074 10.1818 1074.3 10 1074.6 10.1818 1074.9 10.3636 1075 10.5455 1075 11.0909 1074.8 11.6364 1074.7 11.6364 1074.5 12" fill="#003F88" fill-rule="evenodd"/><path d="M1078.07 10C1077.93 9.82353 1078.07 9.11765 1077.93 9.11765 1077.8 9.11765 1077.8 9.29412 1077.67 9.29412 1077.4 9.29412 1077 8.94118 1077 8.58823 1077.13 8.23529 1077 8.41176 1077.27 8.23529 1077.53 7.88235 1077.8 7.52941 1077.93 7.35294 1078.47 7 1078.73 7.17647 1078.87 7.70588 1079 8.23529 1078.87 8.58823 1078.73 8.94118 1078.6 9.29412 1078.33 9.64706 1078.2 9.82353 1078.2 10 1078.07 10 1078.07 10" fill="#003F88" fill-rule="evenodd"/><path d="M1074.4 9C1074.3 9 1074.3 8.90909 1074.3 8.81818 1074.3 8.72727 1074.2 8.63636 1074.1 8.54545 1074 8.27273 1074 8.18182 1074.1 8 1074.3 8 1075 8.09091 1075 8.45455 1074.9 8.63636 1074.6 8.90909 1074.4 9" fill="#003F88" fill-rule="evenodd"/><path d="M1068.47 24.6667C1068 25 1066.89 24.8333 1067.05 24.1667 1067.05 24 1067.05 23.8333 1067.05 23.8333 1067.05 23.8333 1067.05 23.8333 1067.05 23.8333 1066.89 23 1066.42 22.3333 1066.26 21.6667 1066.11 21.5 1066.11 21.3333 1066.11 21 1066.26 21 1066.42 21.1667 1066.58 21.3333 1066.74 21.3333 1066.74 21.1667 1066.74 21 1066.74 20.5 1066.74 20 1066.74 19.5 1066.58 19.3333 1066.42 19.1667 1066.26 19.1667 1066.26 19.3333 1065.95 20.1667 1065.63 19.6667 1065.79 19.3333 1065.79 18.8333 1065.63 18.5 1065.32 18.1667 1065 18 1065 17.8333 1065 17.3333 1065.63 17.3333 1065.95 17.5 1066.26 17.5 1066.26 16.8333 1066.58 17.8333 1066.58 18 1066.74 18 1066.74 18.1667 1066.89 18.1667 1066.89 18 1066.89 18 1066.89 17.6667 1066.89 17.1667 1066.89 16.8333 1066.58 16.5 1066.26 16.1667 1066.11 15.6667 1066.11 15.3333 1066.58 15 1066.89 15 1067.05 14.6667 1067.05 14.5 1067.05 14.1667 1067.05 14.1667 1067.05 14.1667 1067.21 14 1067.37 14 1067.37 14 1067.53 14.1667 1067.84 14.5 1067.21 15.8333 1067.84 16 1068 15.8333 1067.84 15.5 1067.68 15.3333 1067.68 15 1068.16 14.6667 1068.47 14.5 1069.11 14.5 1068.95 14.6667 1068.95 15.1667 1069.11 15.1667 1069.11 15.3333 1069.11 15.3333 1069.74 15.8333 1069.74 15.8333 1070.53 16.5 1070.68 16.6667 1070.84 16.8333 1070.84 17.1667 1070.84 17.1667 1070.84 17.1667 1070.84 17.3333 1070.84 17.3333 1070.84 17.3333 1070.84 17.3333 1071 17.5 1071 18 1070.68 18 1070.05 17.5 1069.26 17 1068.63 16.5 1068.63 16.5 1068.63 16.5 1068.63 16.5 1068.95 16.8333 1069.26 17.6667 1069.26 18.1667 1069.11 18.3333 1068.79 18.5 1068.47 18.5 1068.47 18.3333 1068.47 18.3333 1068.47 18.1667 1068.32 17.8333 1067.68 17.5 1067.37 17.1667 1067.21 17.5 1067.53 18.1667 1067.53 18.5 1067.53 18.6667 1067.53 19 1067.68 19.1667 1067.84 19.3333 1068 19.6667 1068.32 19.8333 1068.32 20 1068.47 20.1667 1068.47 20.3333 1068.47 20.3333 1068.47 20.3333 1068.47 20.5 1068.63 20.6667 1068.79 21.3333 1068.47 21.3333 1068.32 21.3333 1068.32 21.3333 1068.32 21.3333 1068.16 20.8333 1067.84 20.5 1067.68 20.3333 1067.53 20.6667 1067.68 21 1067.53 21.3333 1067.37 21.5 1067.21 21.6667 1067.05 21.6667 1067.05 21.6667 1067.05 21.6667 1067.05 21.6667 1066.89 21.6667 1066.89 21.6667 1066.89 21.8333 1066.89 22 1067.05 22.1667 1067.21 22.3333 1067.53 23 1068 23.6667 1068.63 24.3333 1068.63 24.5 1068.63 24.5 1068.47 24.6667" fill="#003F88" fill-rule="evenodd"/><path d="M1065.64 21C1065.45 21 1065.27 20.8889 1065.27 20.7778 1064.55 20.6667 1064.18 20.5556 1064 20.2222 1064 20.2222 1064 20.2222 1064 20.1111 1064.36 20.1111 1064.91 20 1065.27 20 1066 20.1111 1065.82 20.6667 1065.64 21" fill="#003F88" fill-rule="evenodd"/><path d="M1064.82 20C1064.64 20 1064.64 20 1064.64 20 1064.45 19.8 1064.45 19.8 1064.45 19.6 1063.73 19.6 1063 19.2 1063.18 18.4 1063.36 18.2 1063.36 18.4 1063.73 18.4 1064.27 18.4 1065 18 1065 19 1065 19.2 1064.82 19.6 1064.82 20" fill="#003F88" fill-rule="evenodd"/><path d="M1093 20.9558C1087.59 20.9558 1087.59 20.9558 1087.59 20.9558 1086 20.9558 1085.2 22.5487 1084.57 23.9823 1083.61 21.9115 1083.61 21.9115 1083.61 21.9115 1085.2 21.2743 1085.2 21.2743 1085.2 21.2743 1084.25 20.4779 1081.39 20 1081.07 21.2743 1080.43 23.9823 1080.43 23.9823 1080.43 23.9823 1079.95 22.708 1079.16 20.9558 1077.41 20.9558 1072 20.9558 1072 20.9558 1072 20.9558 1072.64 22.2301 1073.27 22.708 1075.82 22.5487 1076.3 23.5044 1076.3 23.5044 1076.3 23.5044 1073.43 23.5044 1073.43 23.5044 1073.43 23.5044 1074.23 25.0973 1074.7 25.0973 1076.93 25.0973 1077.41 26.0531 1077.41 26.0531 1077.41 26.0531 1075.18 26.2124 1075.18 26.2124 1075.18 26.2124 1075.66 27.1681 1076.3 27.646 1078.05 27.646 1078.52 28.6018 1078.52 28.6018 1078.52 28.6018 1076.77 28.6018 1076.77 28.6018 1076.77 28.6018 1077.41 29.7168 1077.73 30.1947 1079.16 30.0354 1079.48 30.9911 1079.48 30.9911 1079.48 30.9911 1078.2 30.9911 1078.2 30.9911 1078.2 30.9911 1078.84 32.2655 1079.32 32.2655 1080.11 32.4248 1080.75 32.4248 1080.91 33.6991 1080.11 34.177 1082.5 38 1082.5 38 1082.5 38 1084.89 34.177 1084.89 34.177 1084.89 34.177 1084.09 33.6991 1084.09 32.4248 1084.89 32.4248 1085.52 32.2655 1086.16 32.2655 1086.64 30.9911 1085.52 30.9911 1085.52 30.9911 1085.52 30.9911 1085.84 30.0354 1085.84 30.0354 1085.84 30.0354 1087.27 30.1947 1087.59 29.5575 1088.23 28.6018 1086.48 28.6018 1086.48 28.6018 1086.48 28.6018 1086.8 27.646 1086.8 27.646 1086.8 27.646 1088.7 27.646 1089.18 27.1681 1089.66 26.2124 1087.43 26.0531 1087.43 26.0531 1087.43 26.0531 1087.91 25.0973 1087.91 25.0973 1087.91 25.0973 1090.3 25.0973 1090.77 25.0973 1091.57 23.5044 1088.7 23.5044 1088.7 23.5044 1088.7 23.5044 1089.02 22.5487 1089.02 22.5487 1089.02 22.5487 1091.57 22.708 1092.36 22.2301 1093 20.9558" fill="#003F88" fill-rule="evenodd"/><path d="M1101.83 17.9118C1101.83 17.7647 1101.83 17.7647 1101.83 17.7647 1101.83 17.6176 1101.83 17.6176 1101.83 17.4706 1101.83 17.4706 1101.65 17.4706 1101.65 17.4706 1101.48 17.4706 1101.48 17.4706 1101.48 17.4706 1101.31 17.4706 1101.31 17.4706 1101.31 17.4706 1101.31 17.3235 1101.31 17.3235 1101.31 17.3235 1101.31 17.3235 1101.31 17.3235 1101.31 17.3235 1101.13 17.1765 1101.13 17.1765 1101.13 17.1765 1101.13 17.1765 1101.13 17.1765 1101.13 17.1765 1101.31 17.1765 1101.31 17.1765 1101.31 17.1765 1101.31 17.0294 1101.48 17.0294 1101.65 17.0294 1101.65 17.0294 1101.65 17.0294 1101.65 17.0294 1101.65 17.0294 1101.65 17.0294 1101.65 17.0294 1101.83 16.8824 1102 16.5882 1102 16.2941 1102 16.2941 1101.83 16.2941 1101.65 16.2941 1101.48 16.2941 1101.31 16.2941 1100.96 16.4412 1100.96 16.4412 1100.79 16.4412 1100.62 16.4412 1100.44 16.4412 1100.44 16.4412 1100.44 16.4412 1100.1 16.2941 1100.1 16.2941 1099.23 16 1099.23 16 1099.23 16 1099.23 16.1471 1099.06 16.1471 1099.06 16.2941 1099.23 16.4412 1099.23 16.4412 1099.23 16.4412 1099.23 16.4412 1099.23 16.4412 1099.23 16.4412 1099.23 16.4412 1099.23 16.4412 1099.23 16.4412 1099.23 16.4412 1099.06 16.5882 1099.06 16.5882 1099.06 16.5882 1099.06 16.5882 1099.06 16.5882 1099.06 16.5882 1099.06 16.5882 1099.06 16.5882 1099.06 16.5882 1099.06 16.5882 1099.06 16.5882 1099.06 16.5882 1099.06 16.5882 1099.06 16.7353 1099.06 16.7353 1099.06 16.7353 1099.06 16.7353 1099.06 16.7353 1099.06 16.8824 1099.06 16.8824 1099.06 16.8824 1098.88 17.0294 1098.88 17.0294 1098.88 17.0294 1098.88 17.0294 1098.88 17.0294 1098.88 17.0294 1098.88 17.0294 1098.88 17.0294 1098.88 17.0294 1098.88 16.8824 1098.88 16.8824 1098.88 16.8824 1098.71 16.8824 1098.71 16.8824 1098.54 16.7353 1098.54 16.7353 1098.54 16.7353 1098.54 16.7353 1098.37 16.7353 1098.37 16.7353 1098.19 16.7353 1098.19 16.8824 1098.19 16.8824 1098.19 16.8824 1098.19 17.0294 1098.19 17.0294 1098.19 17.0294 1098.19 17.0294 1098.19 17.1765 1097.85 17.3235 1097.67 17.1765 1097.67 17.1765 1097.67 17.1765 1097.5 17.1765 1097.5 17.3235 1097.5 17.3235 1097.5 17.4706 1097.5 17.4706 1097.85 17.4706 1098.02 17.4706 1098.02 17.6176 1098.19 17.6176 1098.19 17.6176 1098.19 17.6176 1098.19 17.6176 1098.37 17.6176 1098.37 17.6176 1098.37 17.6176 1098.54 17.6176 1098.54 17.6176 1098.54 17.6176 1098.71 17.6176 1098.71 17.6176 1098.71 17.6176 1098.71 17.7647 1098.71 17.7647 1098.71 17.7647 1098.37 17.7647 1098.37 17.7647 1098.37 17.7647 1098.37 17.7647 1098.37 17.9118 1098.19 17.9118 1098.19 18.0588 1098.19 18.0588 1098.19 18.0588 1098.02 18.2059 1098.02 18.2059 1098.02 18.2059 1098.02 18.0588 1098.02 18.0588 1098.02 18.0588 1097.85 18.0588 1097.67 18.0588 1097.5 18.0588 1097.15 17.9118 1097.15 17.9118 1097.15 17.9118 1096.81 17.9118 1096.12 17.7647 1095.6 17.6176 1095.6 17.6176 1095.42 17.6176 1095.25 17.6176 1095.08 17.4706 1095.08 17.4706 1095.08 17.4706 1094.9 17.6176 1094.9 17.6176 1094.9 17.6176 1095.08 17.6176 1095.08 17.7647 1095.25 17.7647 1095.25 17.7647 1095.25 17.7647 1095.25 17.7647 1095.42 17.9118 1095.42 18.2059 1095.77 18.3529 1095.94 18.3529 1096.12 18.3529 1096.46 18.3529 1096.98 18.3529 1097.85 18.5 1098.37 18.7941 1098.54 18.9412 1098.54 18.9412 1098.54 18.9412 1098.54 18.9412 1098.54 18.9412 1098.54 18.9412 1098.54 18.9412 1098.54 18.9412 1098.54 18.9412 1098.54 18.9412 1098.54 18.9412 1098.54 18.9412 1098.37 18.9412 1098.37 18.9412 1098.37 18.9412 1098.19 18.9412 1098.19 19.0882 1098.19 19.0882 1098.02 19.0882 1098.02 19.0882 1098.02 19.0882 1097.5 18.9412 1097.5 18.9412 1097.15 18.9412 1096.98 18.7941 1096.81 18.6471 1096.63 18.6471 1096.63 18.6471 1096.46 18.7941 1096.29 18.7941 1096.29 18.7941 1096.29 18.7941 1096.29 18.7941 1096.29 18.7941 1096.29 18.7941 1096.29 18.7941 1096.29 18.9412 1096.29 18.9412 1096.29 18.9412 1096.12 18.7941 1096.12 18.7941 1096.12 18.7941 1096.12 18.7941 1096.12 18.7941 1095.94 18.7941 1095.77 18.7941 1095.6 18.6471 1095.42 18.6471 1094.73 18.5 1094.21 18.3529 1093.69 18.0588 1093.52 17.9118 1093.52 17.9118 1093.35 17.7647 1093.35 17.7647 1093.35 17.7647 1093.35 17.7647 1093.35 17.7647 1093.35 17.7647 1093.35 17.7647 1093.35 17.6176 1093.35 17.6176 1093.35 17.6176 1093.17 17.6176 1093.17 17.7647 1093 17.7647 1093 18.0588 1093.35 18.7941 1093.52 18.9412 1093.69 18.9412 1093.87 19.0882 1094.04 19.0882 1094.38 19.0882 1094.9 19.2353 1095.08 19.3824 1095.25 19.3824 1095.25 19.3824 1095.25 19.3824 1095.25 19.3824 1095.25 19.3824 1095.25 19.3824 1095.25 19.3824 1095.25 19.3824 1095.25 19.3824 1095.25 19.5294 1095.25 19.5294 1095.25 19.5294 1095.08 19.6765 1094.9 19.8235 1094.73 19.8235 1094.73 19.9706 1094.73 19.9706 1094.73 19.9706 1094.73 19.9706 1094.56 19.9706 1094.56 19.9706 1094.56 19.9706 1094.56 19.9706 1094.56 19.9706 1094.56 20.1176 1094.38 20.1176 1094.38 20.1176 1094.21 20.1176 1093.87 19.9706 1093.69 19.8235 1093.69 19.8235 1093.52 19.8235 1093.52 19.8235 1093.52 19.8235 1093.52 19.8235 1093.52 19.8235 1093.69 20.2647 1094.04 20.5588 1094.56 20.8529 1094.56 21 1094.56 21 1094.56 21 1094.73 21 1094.73 21 1094.73 21 1094.73 21 1094.73 21 1094.73 21 1095.08 21 1095.6 20.5588 1095.77 20.2647 1095.77 20.2647 1095.94 20.1176 1095.94 20.1176 1096.12 20.1176 1096.12 20.1176 1096.12 20.1176 1096.29 19.9706 1096.29 19.9706 1096.29 19.9706 1096.29 19.9706 1096.29 19.9706 1096.29 19.9706 1096.63 19.9706 1096.81 19.9706 1096.98 20.1176 1097.15 20.1176 1097.33 19.8235 1097.33 19.6765 1097.33 19.6765 1097.33 19.6765 1097.33 19.6765 1097.15 19.5294 1096.98 19.3824 1096.81 19.3824 1096.81 19.3824 1096.81 19.3824 1096.81 19.3824 1096.81 19.2353 1096.81 19.2353 1096.81 19.2353 1096.98 19.0882 1096.98 19.0882 1096.98 19.0882 1096.98 18.9412 1096.98 18.9412 1096.98 18.9412 1097.15 18.9412 1097.15 18.9412 1097.15 18.9412 1097.5 19.0882 1097.85 19.2353 1098.19 19.2353 1098.54 19.3824 1098.54 19.3824 1098.54 19.3824 1098.71 19.3824 1098.71 19.3824 1098.71 19.3824 1098.88 19.5294 1099.06 19.6765 1099.23 19.6765 1099.23 19.6765 1099.4 19.6765 1099.4 19.6765 1099.58 19.3824 1099.75 19.2353 1099.75 19.0882 1099.75 19.0882 1099.75 19.0882 1099.75 19.0882 1099.75 19.0882 1099.92 19.0882 1099.92 19.0882 1099.75 19.0882 1099.75 19.0882 1099.75 19.0882 1099.75 18.9412 1099.75 18.9412 1099.75 18.9412 1099.75 18.9412 1099.92 18.9412 1099.92 18.9412 1100.44 18.7941 1101.13 18.5 1101.65 18.3529 1101.83 18.2059 1102 18.2059 1101.83 18.0588 1101.83 17.9118 1101.83 17.9118 1101.83 17.9118M1099.4 18.2059C1099.58 18.0588 1099.58 18.0588 1099.58 18.0588 1099.75 17.9118 1099.75 17.9118 1099.75 17.9118 1099.75 17.9118 1099.75 17.7647 1099.58 17.7647 1099.58 17.7647 1099.58 17.7647 1099.58 17.7647 1099.58 17.7647 1099.58 17.7647 1099.58 17.7647 1099.4 17.7647 1099.4 17.7647 1099.4 17.7647 1099.23 17.6176 1099.23 17.6176 1099.23 17.6176 1099.23 17.6176 1099.23 17.6176 1099.23 17.6176 1099.4 17.4706 1099.4 17.4706 1099.4 17.4706 1099.23 17.4706 1099.23 17.4706 1099.23 17.4706 1099.4 17.4706 1099.4 17.4706 1099.4 17.4706 1099.92 17.3235 1099.92 17.3235 1099.92 17.3235 1099.92 17.3235 1099.92 17.3235 1099.92 17.3235 1100.1 17.3235 1100.1 17.3235 1100.1 17.3235 1100.1 17.4706 1100.44 17.6176 1100.44 17.9118 1100.44 18.0588 1100.44 18.0588 1100.44 18.0588 1100.27 18.2059 1099.92 18.3529 1099.58 18.3529 1099.58 18.3529 1099.58 18.3529 1099.58 18.3529 1099.58 18.2059 1099.58 18.2059 1099.58 18.2059 1099.4 18.2059 1099.4 18.2059 1099.4 18.2059Z" fill="#003F88" fill-rule="evenodd"/><path d="M1097.25 17C1097.25 17 1097.12 16.8667 1097 16.8667 1097 16.6 1097.12 16.4667 1097.25 16.2 1097.25 16.2 1097.38 16.0667 1097.38 16.0667 1097.38 16.0667 1097.38 16.0667 1097.38 16.0667 1097.38 15.9333 1097.38 15.9333 1097.38 15.9333 1097.5 15.9333 1097.5 15.8 1097.5 15.6667 1097.5 15.6667 1097.5 15.5333 1097.62 15.5333 1097.62 15.2667 1097.75 15 1097.88 15 1097.88 15 1098 15 1098 15.1333 1098 15.1333 1098 15.1333 1098 15.2667 1098 15.2667 1098 15.2667 1098 15.2667 1098 15.4 1098 15.4 1098 15.4 1098 15.6667 1098 15.8 1098 15.9333 1098 16.0667 1098 16.0667 1098 16.0667 1098 16.0667 1098 16.2 1098 16.2 1097.88 16.4667 1097.88 16.6 1097.75 16.7333 1097.62 16.8667 1097.62 16.8667 1097.62 16.8667 1097.62 16.8667 1097.62 16.8667 1097.62 16.8667 1097.5 16.8667 1097.38 17 1097.38 17L1097.25 17Z" fill="#003F88" fill-rule="evenodd"/><path d="M1097.25 17C1097.38 17 1097.38 17 1097.38 17 1097.38 17 1097.5 16.8667 1097.62 16.8667 1097.62 16.8667 1097.62 16.8667 1097.62 16.8667 1097.75 16.7333 1097.75 16.7333 1097.75 16.7333 1097.88 16.6 1097.88 16.3333 1098 16.2 1098 16.2 1098 16.0667 1098 16.0667 1098 15.9333 1098 15.9333 1098 15.9333 1098 15.8 1098 15.6667 1098 15.4 1098 15.4 1098 15.4 1098 15.2667 1098 15.2667 1098 15.2667 1098 15.2667 1098 15.2667 1098 15.2667 1098 15.2667 1098 15.1333 1098 15.1333 1098 15.1333 1098 15 1097.88 15 1097.88 15 1097.75 15 1097.62 15.2667 1097.62 15.5333 1097.62 15.5333 1097.5 15.6667 1097.5 15.6667 1097.5 15.8 1097.5 15.9333 1097.38 15.9333 1097.38 16.0667 1097.38 16.0667 1097.38 16.0667 1097.38 16.0667 1097.38 16.0667 1097.38 16.0667 1097.38 16.0667 1097.25 16.2 1097.25 16.2 1097.12 16.4667 1097 16.6 1097 16.8667 1097.12 16.8667 1097.25 17 1097.25 17" fill="#003F88" fill-rule="evenodd"/><path d="M1095.5 17C1095.5 17 1095.33 16.8571 1095.17 16.8571 1095 16.4286 1095.67 16 1095.83 16 1095.83 16 1096 16.1429 1096 16.1429 1096 16.2857 1096 16.5714 1095.83 16.7143 1095.67 16.8571 1095.5 17 1095.5 17Z" fill="#003F88" fill-rule="evenodd"/><path d="M1095.5 17C1095.5 17 1095.5 17 1095.5 17 1095.5 17 1095.67 16.8571 1095.83 16.7143 1096 16.5714 1096 16.2857 1096 16.1429 1096 16.1429 1095.83 16 1095.83 16 1095.67 16 1095 16.4286 1095.17 16.8571 1095.33 16.8571 1095.5 17 1095.5 17" fill="#003F88" fill-rule="evenodd"/><path d="M18.7091 7C19.8727 7.8125 21.0364 8.77273 22.2727 9.4375 23.1455 9.88068 24.1636 10.1023 25.1818 10.25 31 11.0625 33.6909 14.9034 32.7455 20.8125 32.6 21.6989 32.1636 22.5852 32.1636 23.4716 32.2364 24.358 32.3818 25.392 32.8182 26.1307 33.7636 27.3864 34.9273 27.0909 35.5091 25.6136 35.8 24.7273 36.0182 23.8409 36.6 23.1023 37.4 22.142 38.2 22.3636 38.5636 23.6193 39 25.3182 37.9818 28.4943 36.3818 29.1591 35.3636 29.6023 34.0545 29.3807 32.9636 29.233 31.8727 29.1591 31.0727 29.1591 30.4182 30.1932 29.0364 32.483 26.5636 33 24.0909 31.4489 24.1636 31.375 24.2364 31.2273 24.3091 31.1534 26.2727 29.4545 26.2 28.3466 23.8727 27.0909 22.8545 26.5 22.7091 25.8352 23.2909 24.875 23.8727 23.9148 24.3818 23.3239 25.5455 24.1364 27.6545 25.5398 28.8182 24.875 28.8909 22.2898 28.9636 20.517 28.8909 18.7443 28.5273 17.0455 28.0909 14.9773 26.4182 13.7216 24.5273 13.8693 24.8182 16.0852 23.5818 17.6364 22.0545 19.0398 21.5455 19.5568 21.4 20.0739 22.0545 20.5909 22.9273 21.4034 22.5636 22.3636 22.0545 23.1761 21.4727 23.9148 20.7455 24.358 19.6545 23.8409 17.6909 22.9545 17.1091 23.3977 16.9636 25.6875 16.8182 27.3125 16.8182 28.9375 16.6 30.4886 16.5273 31.0795 16.0909 31.8182 15.5818 32.0398 14.9273 32.3352 14.0545 32.483 13.4 32.2614 13.0364 32.1136 12.8182 30.858 13.0364 30.3409 13.9091 27.8295 14.0545 25.4659 13.3273 22.8807 13.1091 22.2159 13.8364 21.108 14.4182 20.4432 16.0182 18.5227 15.8727 17.7102 13.4727 16.8239 13.2545 16.75 12.9636 16.75 12.7455 16.6761 12.0909 16.3068 11 16.1591 11.5091 15.125 11.8727 14.5341 12.8909 13.7955 13.4727 13.9432 14.5636 14.1648 15.8 14.7557 16.6 15.5682 17.9818 17.0455 19.2909 17.4148 20.3818 16.3807 21.6182 15.1989 21.5455 13.2784 20.1636 12.0966 19.3636 11.4318 18.4182 10.8409 17.4 10.4716 15.2909 9.51136 15.0727 8.99432 16.3818 7 17.1818 7 17.9091 7 18.7091 7Z" fill="#44546A" fill-rule="evenodd"/><path d="M12.434 62C12.0755 61.7079 11.717 61.3427 11.1434 60.8315 14.083 59.882 14.2981 57.618 14.2264 55.2079 14.083 53.0899 14.1547 53.0899 16.234 52.9438 17.2377 52.8708 18.1698 52.7247 19.3887 52.5787 19.317 51.4831 19.2453 50.3146 19.1736 49.1461 17.883 49.2921 16.8792 49.4382 15.8755 49.5843 13.6528 49.9494 11.0717 48.927 11 45.7865 11 43.7416 11 41.7697 11.0717 39.7978 11.0717 39.2135 11.3585 38.5562 11.7887 38.118 12.2906 37.4607 13.1509 37.6798 13.2943 38.5562 13.5094 40.4551 13.7245 42.427 13.7962 44.3258 13.8679 45.7865 14.5132 46.5899 15.8038 46.9551 17.166 47.3933 18.3849 47.1742 19.317 46.0787 19.9623 45.2753 19.6038 44.1798 18.6 43.8876 16.0906 43.0843 15.4453 42.2809 15.5887 40.236 15.8038 38.191 17.5245 36.5112 19.6038 36.2921 23.4038 36 25.6981 38.4831 24.4075 41.8427 24.1925 42.5 23.5472 43.2303 22.9736 43.4494 21.8981 43.8146 21.5396 44.618 21.9698 45.4213 22.2566 46.0787 23.117 46.6629 23.834 46.809 25.1962 47.0281 26.8453 45.4944 27.2755 43.6685 27.5623 42.5 27.5623 41.1854 27.634 39.9438 27.634 39.5787 27.4906 39.2135 27.5623 38.9213 27.8491 38.4831 28.2075 37.8989 28.566 37.8989 28.9245 37.8258 29.6415 38.4101 29.6415 38.7753 29.8566 40.9663 30 43.1573 29.8566 45.3483 29.7132 47.3202 27.7774 48.6348 25.3396 48.8539 25.0528 48.8539 24.766 48.8539 24.4792 48.8539 22.1132 48.8539 22.1849 48.8539 22.1849 51.264 22.1849 52.5787 22.9019 52.7978 23.834 52.8708 24.1208 52.8708 24.4075 52.7247 24.6943 52.6517 27.0604 52.5056 27.2755 52.7247 27.1321 55.1348 27.0604 56.0112 27.1321 56.8876 27.2038 57.764 27.2038 58.4213 27.4906 59.1517 27.2755 59.736 26.9887 60.3933 26.3434 60.8315 25.9132 61.3427 25.483 60.9775 24.8377 60.6124 24.766 60.1011 24.5509 58.9326 24.6226 57.618 24.4075 56.3764 24.3358 55.8652 23.9057 55.1348 23.5472 55.0618 22.6151 54.8427 22.7585 55.7191 22.7585 56.3764 22.6151 57.691 22.4717 59.0787 22.4717 60.3933 22.4 61.7079 21.4679 61.3427 20.8226 61.3427 20.1057 61.4157 19.317 61.5618 19.317 60.3933 19.317 59.0056 19.2453 57.618 19.0302 56.3034 18.9585 55.9382 18.3849 55.6461 18.0264 55.2809 17.8113 55.6461 17.3094 55.9382 17.3094 56.3034 17.0226 58.8596 16.0906 60.9775 13.5811 62 13.2226 62 12.7925 62 12.434 62ZM21.8981 40.5281C21.6113 39.2865 21.7547 38.3371 20.3925 38.3371 19.3887 38.3371 18.5283 38.8483 18.3132 39.8708 18.0981 40.6742 19.317 41.9888 20.2491 41.7697 20.8226 41.6236 21.3245 40.9663 21.8981 40.5281Z" fill="#44546A" fill-rule="evenodd"/><path d="M44.8519 49.3263C46.9259 47.9486 45.8889 46.716 45.1481 45.3384 43.8148 43.0181 44.1111 40.4079 44.7778 37.9426 44.8519 37.5801 45.6667 37 45.8889 37.0725 46.4074 37.3625 47.0741 37.8701 47.1481 38.3776 47.2963 39.8278 47.1481 41.2779 47.2222 42.7281 47.2963 44.6133 48.6296 45.5559 50.4074 45.1208 51.6667 44.7583 52.1111 44.0332 51.6667 42.8731 51.4444 42.3656 51 41.9305 51 41.423 51 40.6254 51.0741 39.5378 51.5185 39.1027 52.037 38.7402 53.2963 38.6677 53.963 39.0302 54.4815 39.2477 54.7778 40.2628 54.9259 40.9879 55 41.568 54.6296 42.2205 54.4815 42.8006 54.1852 43.7432 54.037 44.6858 55.2963 45.0483 56.7037 45.4109 58.1111 44.9033 58.2593 43.7432 58.4074 42.148 58.1852 40.5529 58.1852 38.9577 58.1852 38.4501 58.037 37.7251 58.3333 37.5076 58.7037 37.2175 59.3704 37.2175 59.8889 37.29 61.3704 37.5076 62.7778 37.7251 64.1852 38.1601 64.7037 38.3051 65.5185 38.9577 65.5185 39.4653 65.5926 40.4079 64.7778 40.4079 63.8889 40.2628 62.1111 39.9003 61.7407 40.2628 61.6667 42.0755 61.6667 43.7432 61.5926 45.4109 61.3704 47.0785 61.2222 49.1813 60.5556 49.6888 58.4815 49.6888 57.8889 49.6163 57.2222 49.4713 56.6296 49.5438 56.037 49.5438 55.0741 49.8338 55.0741 50.0514 55 50.7764 55.1481 51.7915 55.5926 52.0816 57.6667 53.3867 60.037 53.1692 62.2593 52.3716 62.7037 52.2266 63 51.429 63.2222 50.9214 63.4444 50.2689 63.2963 49.5438 63.5926 48.9637 63.7407 48.4562 64.4815 47.8036 64.7778 47.8761 65.2963 48.0211 66.1111 48.6737 66.1111 49.0363 66.037 50.6314 65.8889 52.2266 65.5185 53.7492 65.0741 55.3444 63.5926 55.7795 62.1111 55.7069 58.9259 55.6344 55.6667 55.3444 52.4074 55.1269 52.037 55.0544 51.4444 54.9819 51.1481 55.1994 50.7037 55.5619 50.1852 56.142 50.2593 56.577 50.2593 57.0121 50.9259 57.7372 51.3704 57.7372 55.6667 57.8822 60.037 57.8822 64.3333 57.9547 64.7778 57.9547 65.2963 57.7372 65.6667 57.8822 66.1852 58.0997 66.7778 58.5347 66.9259 59.0423 67 59.4048 66.7778 60.2024 66.4074 60.4924 65.8889 60.855 65.1481 60.9275 64.4815 60.9275 57.8148 61 51.0741 61 44.3333 61 42.1852 61 41.5185 60.565 41.2222 58.3897 41 56.6495 41.2222 54.7644 41.4444 53.0242 41.5185 52.5166 42.5556 52.1541 43.1481 51.7915 43.4444 52.2991 43.8148 52.8066 43.8889 53.3142 44.1852 54.4018 44.1111 55.4894 44.4815 56.432 44.6296 56.8671 45.3704 57.1571 45.8148 57.5196 45.963 57.0121 46.1852 56.577 46.1852 56.0695 46.2593 55.6344 46.037 55.1269 46.037 54.6193 45.963 52.2266 46.2593 52.0091 48.7037 52.2266 49.1481 52.2991 49.7407 52.2991 50.1111 52.0816 50.5556 51.719 51.0741 51.0665 51 50.5589 50.9259 50.1239 50.2593 49.4713 49.7407 49.4713 48.7778 49.3263 47.8148 49.6888 46.8519 49.7613 46.3333 49.7613 45.7407 49.6888 45.2222 49.6888 45.1481 49.5438 45 49.3988 44.8519 49.3263Z" fill="#44546A" fill-rule="evenodd"/><path d="M46.9341 18.9104C47.8242 22.6676 50.272 24.6185 53.239 26.0636 55.0934 26.9306 57.0962 27.3642 59.1731 26.4971 60.5824 25.8468 61.3242 24.5462 60.8049 23.2457 60.6566 22.8844 59.9148 22.6676 59.4698 22.6676 56.5769 22.4509 53.6841 22.0173 51.3104 20.2832 50.4203 19.6329 49.6786 18.6936 49.011 17.8266 48.2692 16.8873 48.7885 16.237 49.7527 15.8757 50.272 15.7312 50.7912 15.8035 51.2363 15.7312 53.0165 15.659 54.4258 15.0087 55.1676 13.2746 55.9835 11.5405 56.8736 9.87861 58.8764 8.43353 58.9505 9.37283 59.1731 9.95087 59.0247 10.5289 58.5055 12.7688 57.1703 14.5751 55.1676 15.8757 54.6483 16.237 54.1291 16.5983 53.6099 16.9595 54.4258 18.1879 55.3159 18.4046 56.5027 17.7543 58.728 16.5983 59.544 14.5029 60.2115 12.263 60.4341 11.5405 60.5824 10.8179 60.8791 10.0954 61.3242 9.15607 61.9176 8.36127 63.6978 8.65029 63.4011 9.87861 63.4011 11.1792 62.8819 12.263 62.0659 14.1416 60.8049 15.8757 59.9148 17.6821 59.6181 18.2601 59.6923 19.0549 59.6181 19.7052 60.4341 19.4884 61.3984 19.5607 61.9918 19.0549 63.9203 17.3208 64.5137 14.9364 64.6621 12.4075 64.7363 11.3237 64.8104 10.1676 64.9588 9.01156 65.033 8.65029 65.5522 8 65.8489 8 66.4423 8 67.2582 8.28902 67.4808 8.65029 67.8516 9.51734 68 10.6012 68 11.5405 68 14.9364 66.6648 17.8266 64.5879 20.5 63.5494 21.9451 63.9203 25.341 65.1813 26.5694 66.1456 27.4364 65.8489 28.6647 64.5137 28.8815 63.2527 29.1705 61.9918 29.2428 60.7308 29.0983 58.5055 28.8092 58.2088 29.026 57.3929 31.0491 57.0962 31.7717 55.9835 32.3497 55.0934 32.711 54.2033 33 53.5357 32.3497 53.239 31.4827 52.9423 30.7601 52.6456 30.1098 52.2747 29.5318 51.1621 28.0867 49.456 28.0145 48.1951 29.315 47.6758 29.8208 47.1566 30.3266 46.7115 30.9046 45.4506 32.2052 43.8187 32.3497 42.1868 32.1329 41.1483 31.9884 41.4451 31.1936 42.0385 30.7601 43.2253 29.9653 44.4863 29.2428 45.7473 28.5202 47.3049 27.6532 47.5275 26.4971 46.3407 25.1243 45.7473 24.474 45.1538 24.4017 44.4121 24.8353 43.6703 25.341 43.0027 25.8468 42.1868 26.2081 41.8901 26.3526 41.4451 26.1358 41 26.0636 41.0742 25.7023 41.0742 25.2688 41.2225 24.9075 41.2967 24.6908 41.5934 24.6185 41.7418 24.4017 43.2253 23.0289 44.6346 21.5838 46.044 20.1387 46.2665 19.8497 46.489 19.5607 46.9341 18.9104Z" fill="#44546A" fill-rule="evenodd"/><path d="M38 37.0732C38 39.7073 37.9231 42.122 38 44.5366 38 45.7805 37.7692 46.9512 36.6154 47.7561 34.3077 49.5854 34.3846 52 35 54.4878 35.3846 56.0976 36.0769 57.6341 36.6154 59.2439 36.7692 59.7561 36.7692 60.2683 36.8462 60.9268 35.3846 60.9268 34.1538 61 32.9231 60.8537 31.7692 60.7805 31.1538 60.1951 31.2308 58.878 31.5385 55.9512 31.5385 53.0244 32 50.0976 32.1538 49.1463 33 48.1951 33.7692 47.4634 35.6154 45.6341 35.4615 43.439 35.2308 41.1707 35.2308 40.9512 34.6154 40.5854 34.2308 40.5122 33.5385 40.3659 32.6923 40.3659 32 40.2195 31.6154 40.0732 31.0769 39.7073 31 39.4146 31 39.0488 31.3846 38.3902 31.6923 38.3171 33.4615 37.8049 35.3077 37.439 37.0769 37 37.3077 37 37.6154 37.0732 38 37.0732Z" fill="#44546A" fill-rule="evenodd"/><path d="M40.4149 9.03158C42.0053 8 43.4574 8.29474 44.3564 9.54737 46.016 12.0526 47.3989 12.3474 49.8191 10.7263 50.5798 10.2842 51.2713 9.69474 52.0319 9.17895 52.9309 9.54737 53 10.1368 52.5851 10.9474 51.617 12.7158 50.1649 13.7474 48.2979 13.8211 46.8457 13.8211 46.1543 14.4842 45.6011 16.0316 45.117 17.6526 44.0798 19.0526 43.1117 20.4526 42.6277 21.1158 41.7287 22 40.8298 20.8211 40 19.8632 40.5532 19.0526 41.2447 18.3158 41.7979 17.8 42.2819 17.2842 42.6968 16.6947 44.0106 14.9263 44.0798 13.9684 42.8351 12.1263 42.1436 11.0211 41.2447 10.1368 40.4149 9.03158Z" fill="#44546A" fill-rule="evenodd"/><text fill="#4472C4" font-family="DengXian,DengXian_MSFontService,sans-serif" font-weight="700" font-size="15" transform="translate(1250.26 646)">1</text><rect x="247" y="72" width="868" height="54" fill="url(#fill3)"/><text font-family="DengXian,DengXian_MSFontService,sans-serif" font-weight="400" font-size="24" transform="translate(288.664 107)">{{KEY_MESSAGE}}</text><g clip-path="url(#clip4)"><g clip-path="url(#clip5)" filter="url(#fx0)" transform="translate(41 63)"><g clip-path="url(#clip6)"><path d="M8.62523 8.69048 210.625 8.69048 237.625 35.6905 210.625 62.6905 8.62523 62.6905Z" stroke="#FFFFFF" stroke-width="2" stroke-miterlimit="8" fill="#769FCD" fill-rule="evenodd"/></g></g><g clip-path="url(#clip7)" filter="url(#fx1)" transform="translate(77 71)"><g clip-path="url(#clip8)"><path d="M5.52686 4.87061C4.53564 4.87061 3.77173 4.58691 3.23511 4.01953 2.69849 3.45215 2.43018 2.6626 2.43018 1.65088L2.43018-1.39453C2.43018-2.16699 2.24902-2.74976 1.88672-3.14282 1.52441-3.53589 0.950195-3.74951 0.164062-3.78369L0.164062-5.42432C0.936523-5.45166 1.50732-5.66016 1.87646-6.0498 2.24561-6.43945 2.43018-7.03076 2.43018-7.82373L2.43018-10.8691C2.43018-11.9561 2.70532-12.7644 3.25562-13.2942 3.80591-13.824 4.64844-14.0889 5.7832-14.0889L6.73682-14.0889 6.73682-12.4482 6.38818-12.4482C5.76611-12.4482 5.32007-12.2671 5.05005-11.9048 4.78003-11.5425 4.64502-10.999 4.64502-10.2744L4.64502-7.21875C4.64502-6.57617 4.46216-6.02246 4.09644-5.55762 3.73071-5.09277 3.23682-4.78516 2.61475-4.63477L2.61475-4.59375C3.21631-4.45703 3.70508-4.12891 4.08105-3.60938 4.45703-3.08984 4.64502-2.48828 4.64502-1.80469L4.64502 1.05615C4.64502 1.78076 4.77832 2.32422 5.04492 2.68652 5.31152 3.04883 5.75928 3.22998 6.38818 3.22998L6.73682 3.22998 6.73682 4.87061ZM12.6935 4.87061C11.7023 4.87061 10.9384 4.58691 10.4018 4.01953 9.86515 3.45215 9.59684 2.6626 9.59684 1.65088L9.59684-1.39453C9.59684-2.16699 9.41569-2.74976 9.05339-3.14282 8.69108-3.53589 8.11686-3.74951 7.33073-3.78369L7.33073-5.42432C8.10319-5.45166 8.67399-5.66016 9.04313-6.0498 9.41227-6.43945 9.59684-7.03076 9.59684-7.82373L9.59684-10.8691C9.59684-11.9561 9.87199-12.7644 10.4223-13.2942 10.9726-13.824 11.8151-14.0889 12.9499-14.0889L13.9035-14.0889 13.9035-12.4482 13.5549-12.4482C12.9328-12.4482 12.4867-12.2671 12.2167-11.9048 11.9467-11.5425 11.8117-10.999 11.8117-10.2744L11.8117-7.21875C11.8117-6.57617 11.6288-6.02246 11.2631-5.55762 10.8974-5.09277 10.4035-4.78516 9.78141-4.63477L9.78141-4.59375C10.383-4.45703 10.8717-4.12891 11.2477-3.60938 11.6237-3.08984 11.8117-2.48828 11.8117-1.80469L11.8117 1.05615C11.8117 1.78076 11.945 2.32422 12.2116 2.68652 12.4782 3.04883 12.9259 3.22998 13.5549 3.22998L13.9035 3.22998 13.9035 4.87061ZM25.1102-3.25049C25.1102-1.86963 24.671-0.811768 23.7926-0.0769043 22.9141 0.657959 21.6444 1.02539 19.9832 1.02539 18.5203 1.02539 17.3702 0.707519 16.5328 0.0717773 15.6954-0.563965 15.1502-1.52441 14.8973-2.80957L17.2147-3.20947C17.5496-1.64404 18.5135-0.861328 20.1063-0.861328 21.8426-0.861328 22.7108-1.60986 22.7108-3.10693 22.7108-3.5376 22.6253-3.88965 22.4544-4.16309 22.2835-4.43652 22.0477-4.66553 21.7469-4.8501 21.4461-5.03467 21.0924-5.19019 20.6856-5.31665 20.2789-5.44312 19.8431-5.57471 19.3783-5.71143 18.2572-6.03271 17.4454-6.36768 16.943-6.71631 16.4405-7.06494 16.0543-7.50244 15.7843-8.02881 15.5142-8.55518 15.3792-9.21143 15.3792-9.99756 15.3792-11.2075 15.7826-12.1509 16.5892-12.8276 17.3958-13.5044 18.5169-13.8428 19.9525-13.8428 21.3197-13.8428 22.3878-13.571 23.1568-13.0276 23.9259-12.4841 24.4574-11.6313 24.7513-10.4692L22.4032-10.0488C22.0955-11.3682 21.2718-12.0278 19.932-12.0278 19.2415-12.0278 18.71-11.8586 18.3375-11.5203 17.9649-11.1819 17.7786-10.7119 17.7786-10.1104 17.7786-9.69336 17.8624-9.34985 18.0299-9.07983 18.1973-8.80981 18.4486-8.57568 18.7835-8.37744 19.1185-8.1792 19.7645-7.9331 20.7215-7.63916 21.8426-7.29053 22.6424-6.98462 23.1209-6.72144 23.5994-6.45825 23.9788-6.16602 24.2591-5.84473 24.5394-5.52344 24.7513-5.15088 24.8949-4.72705 25.0384-4.30322 25.1102-3.81103 25.1102-3.25049ZM33.27 1.02539C31.4038 1.02539 29.9819 0.553711 29.0044-0.389648 28.0269-1.33301 27.5381-2.70703 27.5381-4.51172L27.5381-13.6274 30.0298-13.6274 30.0298-4.69629C30.0298-3.50684 30.322-2.58569 30.9065-1.93286 31.491-1.28003 32.3027-0.953613 33.3418-0.953613 34.4424-0.953613 35.2832-1.29199 35.8643-1.96875 36.4453-2.64551 36.7358-3.5957 36.7358-4.81934L36.7358-13.6274 39.2173-13.6274 39.2173-4.67578C39.2173-2.83691 38.7063-1.427 37.6843-0.446045 36.6624 0.534912 35.1909 1.02539 33.27 1.02539ZM49.5825-9.78223C49.5825-10.4863 49.3484-11.0024 48.8801-11.3306 48.4119-11.6587 47.6992-11.8228 46.7422-11.8228L45.2861-11.8228 45.2861-7.56738 46.7627-7.56738C47.6855-7.56738 48.3862-7.75708 48.8647-8.13647 49.3433-8.51587 49.5825-9.06445 49.5825-9.78223ZM50.4131-3.47607C50.4131-4.25537 50.1174-4.84497 49.5261-5.24487 48.9348-5.64478 48.106-5.84473 47.0396-5.84473L45.2861-5.84473 45.2861-0.984375 47.1831-0.984375C48.27-0.984375 49.0801-1.198 49.6133-1.62524 50.1465-2.05249 50.4131-2.66943 50.4131-3.47607ZM52.9253-3.24023C52.9253-1.94824 52.4468-0.948486 51.4897-0.240967 50.5327 0.466553 49.1963 0.820312 47.4805 0.820312L42.7944 0.820312 42.7944-13.6274 46.8652-13.6274C50.3447-13.6274 52.0845-12.4551 52.0845-10.1104 52.0845-9.24902 51.8452-8.52783 51.3667-7.94678 50.8882-7.36572 50.2114-6.97607 49.3364-6.77783 50.4644-6.66162 51.3445-6.29077 51.9768-5.66528 52.6091-5.03979 52.9253-4.23145 52.9253-3.24023ZM65.1536-13.6274 65.1536-11.6177 60.8368-11.6177 60.8368 0.820312 58.3553 0.820312 58.3553-11.6177 54.0999-11.6177 54.0999-13.6274ZM69.9733 0.820312 67.4714 0.820312 67.4714-13.6274 69.9733-13.6274ZM83.1536-13.6274 83.1536-11.6177 78.8368-11.6177 78.8368 0.820312 76.3553 0.820312 76.3553-11.6177 72.0999-11.6177 72.0999-13.6274ZM87.9631-13.6274 87.9631-1.15869 93.5207-1.15869 93.5207 0.820312 85.4611 0.820312 85.4611-13.6274ZM104.257 0.820312 95.9611 0.820312 95.9611-13.6274 103.836-13.6274 103.836-11.6484 98.4528-11.6484 98.4528-7.50586 103.2-7.50586 103.2-5.57812 98.4528-5.57812 98.4528-1.13818 104.257-1.13818ZM106.561-14.0889C107.552-14.0889 108.316-13.8052 108.853-13.2378 109.39-12.6704 109.658-11.8809 109.658-10.8691L109.658-7.82373C109.658-7.05127 109.839-6.46851 110.201-6.07544 110.564-5.68237 111.138-5.46875 111.924-5.43457L111.924-3.79395C111.145-3.7666 110.572-3.55469 110.206-3.1582 109.841-2.76172 109.658-2.17383 109.658-1.39453L109.658 1.65088C109.658 2.73779 109.383 3.54614 108.832 4.07593 108.282 4.60571 107.44 4.87061 106.305 4.87061L105.351 4.87061 105.351 3.22998 105.7 3.22998C106.322 3.22998 106.77 3.04883 107.043 2.68652 107.317 2.32422 107.453 1.78076 107.453 1.05615L107.453-1.99951C107.453-2.65576 107.638-3.2146 108.007-3.67603 108.376-4.13745 108.865-4.43994 109.473-4.5835L109.473-4.62451C108.865-4.76123 108.376-5.08765 108.007-5.60376 107.638-6.11987 107.453-6.72314 107.453-7.41357L107.453-10.2642C107.453-10.9888 107.318-11.5339 107.048-11.8997 106.778-12.2654 106.329-12.4482 105.7-12.4482L105.351-12.4482 105.351-14.0889ZM113.728-14.0889C114.719-14.0889 115.483-13.8052 116.02-13.2378 116.556-12.6704 116.825-11.8809 116.825-10.8691L116.825-7.82373C116.825-7.05127 117.006-6.46851 117.368-6.07544 117.73-5.68237 118.305-5.46875 119.091-5.43457L119.091-3.79395C118.311-3.7666 117.739-3.55469 117.373-3.1582 117.007-2.76172 116.825-2.17383 116.825-1.39453L116.825 1.65088C116.825 2.73779 116.549 3.54614 115.999 4.07593 115.449 4.60571 114.606 4.87061 113.472 4.87061L112.518 4.87061 112.518 3.22998 112.867 3.22998C113.489 3.22998 113.936 3.04883 114.21 2.68652 114.483 2.32422 114.62 1.78076 114.62 1.05615L114.62-1.99951C114.62-2.65576 114.805-3.2146 115.174-3.67603 115.543-4.13745 116.032-4.43994 116.64-4.5835L116.64-4.62451C116.032-4.76123 115.543-5.08765 115.174-5.60376 114.805-6.11987 114.62-6.72314 114.62-7.41357L114.62-10.2642C114.62-10.9888 114.485-11.5339 114.215-11.8997 113.945-12.2654 113.495-12.4482 112.867-12.4482L112.518-12.4482 112.518-14.0889Z" fill="#FFFFFF" transform="translate(20.8776 35)"/></g></g></g><path d="M46 70 248 70 275 97 248 124 46 124Z" stroke="#FFFFFF" stroke-width="2" stroke-miterlimit="8" fill="#769FCD" fill-rule="evenodd"/><text fill="#FFFFFF" font-family="DengXian,DengXian_MSFontService,sans-serif" font-weight="700" font-size="21" transform="translate(94.2524 104)">{{SUBTITLE}}</text><path d="M46 145.893C46 141.534 49.5339 138 53.8931 138L1221.11 138C1225.47 138 1229 141.534 1229 145.893L1229 323.107C1229 327.466 1225.47 331 1221.11 331L53.8931 331C49.5339 331 46 327.466 46 323.107Z" stroke="#769FCD" stroke-width="2" stroke-miterlimit="8" stroke-dasharray="8 6" fill="none" fill-rule="evenodd"/><text font-family="Microsoft YaHei,Microsoft YaHei_MSFontService,sans-serif" font-weight="700" font-size="35" transform="translate(73.5001 45)">{{SECTION_NUM}} {{PAGE_TITLE}}</text><path d="M85.9999 148 115 160 85.9999 172Z" fill="#5387C1" fill-rule="evenodd"/><path d="M44 399.709C44 389.928 51.9284 382 61.7086 382L587.291 382C597.072 382 605 389.928 605 399.709L605 625.291C605 635.072 597.072 643 587.291 643L61.7086 643C51.9284 643 44 635.072 44 625.291Z" fill="#EEF2F7" fill-rule="evenodd"/><path d="M84.6666 379 564.333 379C568.015 379 571 381.985 571 385.667L571 419 78 419 78 385.667C78 381.985 80.9847 379 84.6666 379Z" fill="#5387C1" fill-rule="evenodd"/><text fill="#FFFFFF" font-family="DengXian,DengXian_MSFontService,sans-serif" font-weight="700" font-size="19" transform="translate(243.398 406)">{{SECTION_NAME}}</text><path d="M28 386.248C28 380.036 33.0358 375 39.2478 375L609.752 375C615.964 375 621 380.036 621 386.248L621 638.752C621 644.964 615.964 650 609.752 650L39.2478 650C33.0358 650 28 644.964 28 638.752Z" stroke="#769FCD" stroke-width="2" stroke-miterlimit="8" stroke-dasharray="8 6" fill="none" fill-rule="evenodd"/><text fill="#003F88" font-family="Microsoft YaHei,Microsoft YaHei_MSFontService,sans-serif" font-weight="700" font-size="24" transform="translate(540.065 361)">{{KEY_MESSAGE}}<tspan fill="#000000" font-family="DengXian,DengXian_MSFontService,sans-serif" font-weight="400" font-size="24" x="-466.075" y="109">{{CONTENT_AREA}}</tspan></text><path d="M654 400.641C654 390.898 661.898 383 671.641 383L1214.36 383C1224.1 383 1232 390.898 1232 400.641L1232 625.359C1232 635.102 1224.1 643 1214.36 643L671.641 643C661.898 643 654 635.102 654 625.359Z" fill="#EEF2F7" fill-rule="evenodd"/><path d="M695.667 380 1190.33 380C1194.02 380 1197 382.985 1197 386.667L1197 420 689 420 689 386.667C689 382.985 691.985 380 695.667 380Z" fill="#5387C1" fill-rule="evenodd"/><text fill="#FFFFFF" font-family="DengXian,DengXian_MSFontService,sans-serif" font-weight="700" font-size="19" transform="translate(862.348 408)">{{SECTION_NAME}}</text><path d="M637 386.288C637 380.054 642.054 375 648.288 375L1237.71 375C1243.95 375 1249 380.054 1249 386.288L1249 639.712C1249 645.946 1243.95 651 1237.71 651L648.288 651C642.054 651 637 645.946 637 639.712Z" stroke="#769FCD" stroke-width="2" stroke-miterlimit="8" stroke-dasharray="8 6" fill="none" fill-rule="evenodd"/><text font-family="DengXian,DengXian_MSFontService,sans-serif" font-weight="400" font-size="16" transform="translate(670.015 463)">{{CONTENT_AREA<tspan font-size="16" x="123.667" y="0">}}</tspan><tspan font-size="24" x="-545.082" y="-293">{{CONTENT_AREA}}</tspan></text></g></svg>